<svg width="243" height="296" viewBox="0 0 243 296" fill="none" xmlns="http://www.w3.org/2000/svg">
<path opacity="0.7" d="M198.177 115.578C198.177 104.907 195.013 94.4764 189.084 85.6043C183.156 76.7321 174.73 69.8171 164.872 65.7337C155.014 61.6503 144.166 60.5819 133.701 62.6636C123.235 64.7453 113.622 69.8837 106.077 77.4288C98.5321 84.9739 93.3938 94.587 91.3121 105.052C89.2304 115.518 90.2988 126.366 94.3822 136.224C98.4656 146.082 105.381 154.508 114.253 160.436C123.125 166.364 133.556 169.528 144.226 169.528C158.535 169.528 172.257 163.844 182.375 153.727C192.493 143.609 198.177 129.886 198.177 115.578ZM99.349 115.578C99.349 106.706 101.98 98.0328 106.91 90.6563C111.839 83.2798 118.846 77.531 127.043 74.1369C135.24 70.7428 144.26 69.856 152.961 71.5887C161.662 73.3213 169.654 77.5956 175.926 83.8708C182.198 90.146 186.468 98.1402 188.195 106.842C189.923 115.545 189.032 124.564 185.633 132.759C182.234 140.954 176.482 147.958 169.103 152.883C161.723 157.809 153.049 160.435 144.177 160.43C132.288 160.417 120.889 155.687 112.484 147.277C104.08 138.868 99.3554 127.467 99.349 115.578V115.578Z" fill="url(#paint0_linear_41_204)" fill-opacity="0.8"/>
<path opacity="0.7" d="M182.98 115.578C182.98 107.9 180.703 100.395 176.438 94.0106C172.172 87.6267 166.109 82.651 159.016 79.7128C151.922 76.7746 144.117 76.0059 136.586 77.5037C129.056 79.0016 122.139 82.6988 116.71 88.1279C111.281 93.557 107.584 100.474 106.086 108.004C104.588 115.535 105.357 123.34 108.295 130.434C111.233 137.527 116.209 143.59 122.593 147.855C128.977 152.121 136.482 154.398 144.16 154.398C154.452 154.385 164.318 150.291 171.595 143.013C178.873 135.736 182.967 125.87 182.98 115.578V115.578ZM108.209 115.578C108.209 108.467 110.318 101.517 114.268 95.6046C118.218 89.6925 123.833 85.0846 130.402 82.3636C136.971 79.6426 144.2 78.9306 151.174 80.3178C158.147 81.705 164.553 85.1289 169.581 90.1568C174.609 95.1846 178.033 101.59 179.42 108.564C180.807 115.538 180.095 122.766 177.374 129.336C174.653 135.905 170.045 141.519 164.133 145.47C158.221 149.42 151.27 151.529 144.16 151.529C134.629 151.516 125.492 147.724 118.753 140.985C112.014 134.245 108.222 125.109 108.209 115.578V115.578Z" fill="url(#paint1_linear_41_204)" fill-opacity="0.8"/>
<path opacity="0.7" d="M214.502 115.579C214.497 101.67 210.368 88.0742 202.637 76.5114C194.906 64.9485 183.92 55.9377 171.068 50.6182C158.216 45.2987 144.075 43.9094 130.434 46.6259C116.792 49.3425 104.263 56.0429 94.429 65.88C84.5954 75.7171 77.8993 88.2491 75.1875 101.891C72.4757 115.534 73.87 129.674 79.194 142.524C84.518 155.374 93.5326 166.357 105.098 174.084C116.664 181.811 130.261 185.936 144.17 185.936C162.822 185.916 180.703 178.497 193.889 165.306C207.076 152.115 214.489 134.231 214.502 115.579V115.579ZM76.7071 115.579C76.7071 102.23 80.6658 89.1813 88.0825 78.0825C95.4992 66.9837 106.041 58.3337 118.374 53.2265C130.707 48.1192 144.278 46.7842 157.37 49.3902C170.462 51.9962 182.487 58.4262 191.924 67.8669C201.361 77.3077 207.787 89.3351 210.388 102.428C212.989 115.521 211.649 129.091 206.538 141.422C201.426 153.754 192.772 164.292 181.671 171.705C170.569 179.117 157.519 183.071 144.17 183.066C126.279 183.047 109.128 175.93 96.4794 163.277C83.8312 150.624 76.7201 133.47 76.7071 115.579V115.579Z" fill="url(#paint2_linear_41_204)" fill-opacity="0.8"/>
<path opacity="0.7" d="M162.66 115.578C162.66 111.921 161.576 108.346 159.544 105.306C157.512 102.265 154.625 99.8949 151.246 98.4954C147.867 97.0959 144.15 96.7297 140.563 97.4432C136.976 98.1566 133.681 99.9177 131.095 102.504C128.509 105.09 126.748 108.384 126.035 111.971C125.322 115.558 125.688 119.276 127.087 122.654C128.487 126.033 130.857 128.921 133.897 130.952C136.938 132.984 140.513 134.069 144.17 134.069C149.074 134.069 153.777 132.121 157.245 128.653C160.712 125.185 162.66 120.482 162.66 115.578V115.578Z" fill="url(#paint3_linear_41_204)" fill-opacity="0.8"/>
<path opacity="0.7" d="M128.182 213.499C133.468 214.354 138.815 214.78 144.171 214.774H144.416V209.232C150.886 209.211 157.338 208.52 163.666 207.172L164.843 212.641C170.085 211.523 175.227 209.981 180.219 208.03L178.184 202.832C184.2 200.469 189.953 197.486 195.35 193.93L198.416 198.614C202.897 195.688 207.137 192.408 211.094 188.804L207.317 184.66C212.089 180.285 216.395 175.428 220.167 170.167L224.729 173.453C227.856 169.101 230.62 164.5 232.993 159.695L228.088 157.243C230.991 151.444 233.269 145.353 234.881 139.072L240.276 140.469C241.599 135.277 242.51 129.988 242.998 124.652L237.456 124.162C237.701 121.366 237.849 118.546 237.849 115.677C237.839 112.037 237.618 108.402 237.186 104.788L242.729 104.151C242.113 98.818 241.063 93.5443 239.59 88.3824L234.219 89.9274C232.438 83.701 230.013 77.6767 226.985 71.952L231.889 69.328C229.378 64.6004 226.492 60.0818 223.257 55.8158L218.745 59.0038C214.83 53.8511 210.392 49.1175 205.503 44.8786L209.206 40.636C205.161 37.1219 200.839 33.9399 196.282 31.1211L193.315 35.8786C187.808 32.4694 181.965 29.6343 175.879 27.4181L177.767 22.1702C172.723 20.3553 167.54 18.9529 162.269 17.9768L161.263 23.4699C155.602 22.4109 149.856 21.8774 144.097 21.8759H141.865L141.743 16.2847C136.385 16.4101 131.046 16.9677 125.778 17.9522L126.808 23.4454C120.445 24.6312 114.223 26.4805 108.244 28.9631L106.086 23.8132C101.138 25.876 96.3648 28.3364 91.8138 31.1701L94.7811 35.9276C89.2719 39.4037 84.1357 43.4387 79.4542 47.9685L75.5796 43.8976C71.7055 47.6 68.138 51.6104 64.9121 55.8894L69.3753 59.2491C65.4826 64.4233 62.1223 69.9773 59.3453 75.8266L54.2936 73.3743C52.0146 78.232 50.1364 83.2678 48.6778 88.4315L54.0484 89.9519C52.2834 96.1883 51.1658 102.59 50.7132 109.055L45.171 108.663C44.9994 110.919 44.9258 113.224 44.9258 115.505C44.9258 118.57 45.0729 121.66 45.3427 124.701L50.8849 124.186C51.4824 130.635 52.748 137.004 54.6614 143.191L49.3399 144.835C50.9128 149.964 52.9144 154.951 55.3236 159.745L60.2282 157.292C63.1284 163.082 66.6212 168.555 70.6505 173.625L66.2363 177.107C69.5739 181.306 73.2393 185.234 77.1981 188.853L80.9501 184.709C85.7472 189.06 90.9728 192.913 96.5468 196.21L93.7021 201.115C98.3234 203.841 103.163 206.178 108.171 208.104L110.182 202.905C116.224 205.252 122.495 206.961 128.893 208.006L128.182 213.499ZM144.391 206.927V201.238C150.318 201.222 156.228 200.589 162.023 199.349L163.2 204.965C157.016 206.264 150.711 206.905 144.391 206.878V206.927ZM67.7567 115.628C67.7567 100.514 72.2383 85.7405 80.6348 73.1743C89.0312 60.6081 100.965 50.814 114.928 45.0304C128.891 39.2468 144.255 37.7336 159.078 40.682C173.901 43.6304 187.517 50.9081 198.203 61.5948C208.89 72.2815 216.168 85.8971 219.116 100.72C222.065 115.543 220.551 130.907 214.768 144.87C208.984 158.833 199.19 170.767 186.624 179.163C174.058 187.56 159.284 192.041 144.171 192.041C123.904 192.015 104.475 183.95 90.1492 169.614C75.823 155.279 67.7697 135.845 67.7567 115.579V115.628ZM177.326 200.698L175.241 195.352C180.752 193.19 186.028 190.47 190.985 187.235L194.124 192.14C188.83 195.542 183.201 198.393 177.326 200.649V200.698ZM205.797 182.968L201.922 178.725C206.282 174.726 210.219 170.289 213.669 165.483L218.328 168.818C214.633 173.926 210.435 178.65 205.797 182.919V182.968ZM225.955 156.164L220.83 153.712C223.475 148.42 225.555 142.863 227.034 137.134L232.601 138.557C231.005 144.626 228.778 150.511 225.955 156.115V156.164ZM235.494 115.628C235.494 118.423 235.347 121.17 235.102 123.892L229.388 123.377C229.609 120.925 229.756 118.252 229.756 115.628C229.719 112.273 229.481 108.924 229.045 105.598L234.759 104.96C235.203 108.483 235.449 112.028 235.494 115.579V115.628ZM231.938 90.516L226.445 92.0854C224.802 86.3981 222.583 80.8928 219.824 75.655L224.876 72.982C227.839 78.5453 230.207 84.4062 231.938 90.4669V90.516ZM216.93 60.5242L212.369 63.9084C208.785 59.189 204.726 54.8502 200.255 50.9603L204.007 46.6442C208.774 50.8027 213.104 55.4371 216.93 60.4752V60.5242ZM192.113 37.963L189.097 42.8677C184.065 39.7476 178.723 37.1588 173.157 35.1429L175.119 29.7478C181.054 31.8669 186.75 34.6039 192.113 37.914V37.963ZM144.171 24.3282C149.765 24.3312 155.347 24.8484 160.846 25.8732L159.792 31.5135C154.642 30.5364 149.412 30.0438 144.171 30.0421C143.484 30.0421 142.822 30.0421 142.135 30.0421L142.013 24.3037L144.171 24.3282ZM127.299 25.8977L128.353 31.538C122.535 32.6208 116.847 34.314 111.383 36.5898L109.201 31.2928C115.03 28.8602 121.095 27.0358 127.299 25.8486V25.8977ZM96.0563 38.1592L99.0972 43.0638C94.0634 46.1866 89.3703 49.8277 85.0945 53.9275L81.1463 49.7832C85.7053 45.3652 90.7009 41.4213 96.0563 38.0121V38.1592ZM71.3126 60.794L75.8739 64.2272C72.3044 68.9594 69.2311 74.0461 66.7023 79.407L61.5279 76.9547C64.2045 71.1885 67.4844 65.7221 71.3126 60.6469V60.794ZM56.3535 90.8102L61.8712 92.3797C60.2419 98.0673 59.2225 103.912 58.8303 109.816L53.1165 109.423C53.5281 103.073 54.6132 96.7842 56.3535 90.6631V90.8102ZM53.2636 124.211L58.9775 123.671C59.5246 129.569 60.675 135.395 62.4107 141.058L56.9421 142.75C55.0678 136.666 53.835 130.404 53.2636 124.063V124.211ZM62.4843 156.434L67.6096 153.982C70.2539 159.277 73.4427 164.282 77.1245 168.916L72.6368 172.472C68.6913 167.45 65.2882 162.025 62.4843 156.287V156.434ZM82.6913 183.189L86.5659 178.946C90.9383 182.937 95.7132 186.462 100.814 189.467L97.9201 194.371C92.4699 191.125 87.367 187.329 82.6913 183.041V183.189ZM111.334 200.723L113.394 195.377C118.938 197.523 124.692 199.084 130.56 200.036L129.653 205.701C123.389 204.686 117.25 203.018 111.334 200.723V200.723Z" fill="url(#paint4_linear_41_204)" fill-opacity="0.8"/>
<path d="M48.2813 212.764C48.2764 219.628 50.3074 226.339 54.1174 232.049C57.9273 237.759 63.345 242.21 69.6852 244.84C76.0254 247.47 83.0032 248.161 89.736 246.825C96.4688 245.489 102.654 242.186 107.509 237.334C112.365 232.482 115.672 226.299 117.013 219.567C118.354 212.835 117.668 205.857 115.042 199.515C112.417 193.173 107.969 187.752 102.262 183.938C96.5553 180.124 89.8455 178.088 82.9814 178.088C73.7846 178.095 64.9659 181.749 58.4605 188.25C51.9551 194.751 48.2942 203.567 48.2813 212.764V212.764ZM114.493 212.764C114.498 219.017 112.649 225.131 109.178 230.332C105.708 235.534 100.773 239.589 94.997 241.985C89.2214 244.382 82.8649 245.011 76.7315 243.794C70.5981 242.577 64.9634 239.569 60.5402 235.149C56.117 230.729 53.1039 225.097 51.8823 218.964C50.6606 212.832 51.2851 206.475 53.6769 200.697C56.0687 194.92 60.1202 189.982 65.319 186.507C70.5178 183.033 76.6303 181.178 82.8833 181.178C91.2756 181.165 99.3297 184.485 105.275 190.408C111.221 196.33 114.572 204.372 114.592 212.764H114.493Z" fill="url(#paint5_linear_41_204)" fill-opacity="0.8"/>
<path d="M30.2383 212.765C30.2383 223.198 33.332 233.396 39.1281 242.071C44.9243 250.745 53.1626 257.506 62.8012 261.499C72.4398 265.491 83.0459 266.536 93.2782 264.5C103.511 262.465 112.91 257.441 120.287 250.064C127.664 242.687 132.688 233.288 134.723 223.056C136.758 212.823 135.714 202.217 131.721 192.578C127.729 182.94 120.968 174.702 112.293 168.905C103.619 163.109 93.4202 160.016 82.9874 160.016C69.0034 160.035 55.5978 165.599 45.7096 175.487C35.8215 185.375 30.2577 198.781 30.2383 212.765V212.765ZM128.527 212.765C128.532 221.773 125.865 230.58 120.864 238.072C115.863 245.564 108.752 251.404 100.432 254.855C92.1107 258.306 82.9535 259.211 74.1181 257.457C65.2828 255.702 57.1661 251.367 50.7949 244.999C44.4237 238.631 40.084 230.517 38.3249 221.683C36.5658 212.848 37.4662 203.69 40.9122 195.368C44.3583 187.045 50.1951 179.931 57.6846 174.926C65.174 169.921 73.9795 167.25 82.9874 167.25C95.0527 167.269 106.618 172.071 115.15 180.602C123.681 189.134 128.483 200.699 128.502 212.765H128.527Z" fill="url(#paint6_linear_41_204)" fill-opacity="0.8"/>
<path d="M82.8143 135.221C78.7085 135.222 74.6091 135.542 70.5528 136.177L69.6945 130.733C65.3945 131.421 61.1553 132.446 57.0161 133.799L58.7572 139.071C54.8954 140.333 51.1398 141.899 47.5256 143.755L45.0733 138.85C41.2105 140.847 37.5051 143.134 33.9889 145.692L37.275 150.18C33.9945 152.579 30.9036 155.227 28.0298 158.101L24.1061 154.177C21.0429 157.229 18.2147 160.508 15.6457 163.986L20.1579 167.248C17.7748 170.536 15.6512 174.004 13.8064 177.621L8.90184 175.169C6.96478 179.061 5.32523 183.094 3.99723 187.234L9.26971 188.926C8.02498 192.796 7.08209 196.756 6.44954 200.771L0.980907 199.913C0.335556 204.166 0.00769108 208.461 0 212.763V212.91H5.51768C5.52082 216.968 5.84882 221.019 6.49859 225.024L1.02996 225.907C1.72036 230.199 2.74528 234.429 4.09534 238.561L9.36778 236.844C10.6192 240.71 12.1857 244.467 14.0517 248.076L9.14708 250.528C11.125 254.409 13.4131 258.124 15.989 261.637L20.4767 258.351C22.86 261.637 25.5005 264.728 28.3731 267.596L24.4495 271.52C27.5406 274.588 30.8608 277.416 34.3813 279.98L37.6428 275.468C40.9247 277.86 44.3936 279.984 48.0161 281.82L45.5638 286.724C49.4541 288.666 53.4878 290.305 57.6292 291.629L59.3212 286.356C63.1906 287.601 67.1507 288.544 71.1658 289.177L70.3076 294.645C74.5756 295.304 78.8881 295.632 83.2067 295.626V295.626V290.133C87.2722 290.119 91.3306 289.791 95.3456 289.152L96.2039 294.621C100.504 293.933 104.743 292.908 108.882 291.555L107.166 286.283C111.034 285.038 114.791 283.471 118.397 281.599L120.85 286.504C124.725 284.524 128.439 282.245 131.958 279.686L128.501 275.468C131.781 273.069 134.872 270.421 137.746 267.547L141.67 271.471C144.739 268.425 147.568 265.146 150.13 261.662L145.667 258.302C148.053 255.017 150.177 251.548 152.018 247.929L156.923 250.381C158.885 246.5 160.525 242.465 161.828 238.316L156.555 236.624C157.819 232.758 158.771 228.797 159.4 224.779L164.868 225.637C165.536 221.354 165.872 217.025 165.874 212.689H160.356C160.354 208.583 160.035 204.484 159.4 200.428L164.844 199.569C164.176 195.268 163.159 191.027 161.803 186.891L156.531 188.608C155.283 184.744 153.725 180.988 151.871 177.376L156.776 174.924C154.789 171.048 152.501 167.333 149.934 163.815L145.667 167.199C143.277 163.911 140.637 160.812 137.77 157.929L141.694 154.005C138.648 150.936 135.369 148.107 131.885 145.545L128.501 150.057C125.216 147.663 121.747 145.531 118.127 143.681L120.58 138.777C116.696 136.84 112.671 135.201 108.539 133.872L106.822 139.145C102.961 137.894 99.0094 136.943 95.0022 136.3L95.836 130.856C91.5453 130.177 87.2074 129.841 82.8633 129.85H82.6917L82.8143 135.221ZM151.258 212.763C151.263 226.273 147.261 239.48 139.758 250.716C132.256 261.951 121.589 270.708 109.109 275.881C96.6282 281.053 82.894 282.407 69.6434 279.773C56.3929 277.138 44.2213 270.633 34.6684 261.08C25.1155 251.527 18.6103 239.356 15.9759 226.105C13.3414 212.855 14.696 199.12 19.8682 186.64C25.0405 174.159 33.7981 163.493 45.0331 155.99C56.2682 148.488 69.4761 144.486 82.986 144.491C101.087 144.51 118.441 151.709 131.24 164.509C144.039 177.308 151.239 194.662 151.258 212.763V212.763Z" fill="url(#paint7_linear_41_204)" fill-opacity="0.8"/>
<path d="M72.5039 58.2442C72.5039 61.6781 73.5222 65.0349 75.43 67.8901C77.3378 70.7454 80.0494 72.9707 83.222 74.2848C86.3945 75.5989 89.8855 75.9428 93.2534 75.2728C96.6214 74.6029 99.7151 72.9493 102.143 70.5212C104.571 68.093 106.225 64.9993 106.895 61.6314C107.565 58.2634 107.221 54.7724 105.907 51.5999C104.593 48.4273 102.367 45.7157 99.5122 43.8079C96.657 41.9001 93.3002 40.8818 89.8662 40.8818C85.2615 40.8818 80.8453 42.7111 77.5892 45.9671C74.3331 49.2232 72.5039 53.6394 72.5039 58.2442Z" fill="url(#paint8_linear_41_204)" fill-opacity="0.8"/>
<path d="M96.0229 0.318812C93.9875 0.122627 91.9276 0 89.8431 0V8.55852C86.1198 8.55813 82.4088 8.98602 78.7832 9.83373L76.8704 1.49591C74.8628 1.95122 72.8817 2.5161 70.9359 3.188L73.7315 11.2806C70.2124 12.5283 66.8473 14.1739 63.7016 16.1852L59.1648 8.82827C57.4174 9.92066 55.7309 11.1077 54.1131 12.3841L59.3855 19.128C56.4595 21.4287 53.7951 24.0438 51.44 26.9263L44.7943 21.5067C43.4941 23.0787 42.2746 24.7157 41.1404 26.4113L48.3256 31.0952C46.3297 34.2236 44.6849 37.5626 43.421 41.0516L35.3039 38.1333C34.5927 40.0707 33.9796 42.057 33.4647 44.0434L41.778 46.1278C40.8619 49.7369 40.3681 53.4402 40.3066 57.1632L31.748 56.967C31.748 59.027 31.748 61.0869 31.9197 63.1468L40.4537 62.4357C40.7652 66.1422 41.4889 69.8024 42.6117 73.3484L34.4701 75.9479C35.0842 77.9099 35.813 79.8342 36.6527 81.7108L44.5 78.2531C45.9906 81.6604 47.8666 84.8857 50.0913 87.8661L43.2248 92.9914C44.4591 94.6434 45.7769 96.2313 47.173 97.7489L53.4755 91.9124C55.9882 94.6788 58.8105 97.1473 61.8869 99.2693L56.9822 106.332C58.6838 107.492 60.4436 108.564 62.2547 109.544L66.3255 102.016C69.5961 103.796 73.0602 105.195 76.6497 106.185L74.3691 114.425C76.3536 114.979 78.3677 115.421 80.4018 115.749L81.775 107.313C84.4661 107.757 87.1892 107.979 89.9167 107.975C90.9222 107.975 91.9276 107.975 92.9085 107.975L93.4235 116.509C95.4778 116.389 97.5243 116.16 99.5543 115.822L98.1319 107.386C101.811 106.784 105.408 105.756 108.849 104.321L112.11 112.242C114.011 111.459 115.87 110.575 117.677 109.594L113.606 102.065C116.866 100.283 119.917 98.145 122.704 95.6889L128.369 102.114C129.918 100.757 131.392 99.3161 132.783 97.7979L126.481 92.0105C128.99 89.2565 131.193 86.2389 133.053 83.0105L140.41 87.2775C141.434 85.4865 142.367 83.6449 143.205 81.7598L135.358 78.3266C136.842 74.9108 137.944 71.3414 138.644 67.6836L147.055 69.2776C147.443 67.2587 147.721 65.2203 147.889 63.1714L139.355 62.4602C139.355 61.1114 139.527 59.7627 139.527 58.3894C139.526 56.0267 139.362 53.6669 139.036 51.3267L147.497 50.1251C147.207 48.0856 146.806 46.0635 146.295 44.0679L138.006 46.1769C137.088 42.5649 135.763 39.0685 134.058 35.7546L141.685 31.8554C140.75 30.0199 139.719 28.2354 138.595 26.5094L131.41 31.2178C129.371 28.1046 126.994 25.2261 124.323 22.6348L130.257 16.4795C128.779 15.0464 127.224 13.6956 125.598 12.4332L120.325 19.2016C117.397 16.9093 114.222 14.9516 110.859 13.3651L114.489 5.61576C112.617 4.74267 110.701 3.96512 108.75 3.28608L105.979 11.4032C102.456 10.1714 98.8024 9.3486 95.0911 8.9509L96.0229 0.318812ZM132.391 58.2422C132.391 66.6525 129.897 74.8739 125.224 81.8667C120.552 88.8596 113.911 94.3099 106.14 97.5283C98.3704 100.747 89.8205 101.589 81.5718 99.9481C73.3232 98.3074 65.7463 94.2575 59.7994 88.3105C53.8524 82.3636 49.8025 74.7867 48.1618 66.538C46.521 58.2894 47.3631 49.7395 50.5816 41.9694C53.8 34.1994 59.2503 27.5582 66.2432 22.8857C73.236 18.2132 81.4574 15.7193 89.8677 15.7193C101.141 15.7323 111.95 20.2165 119.922 28.1883C127.893 36.1601 132.378 46.9684 132.391 58.2422V58.2422Z" fill="url(#paint9_linear_41_204)" fill-opacity="0.8"/>
<defs>
<linearGradient id="paint0_linear_41_204" x1="144.226" y1="61.627" x2="144.226" y2="169.528" gradientUnits="userSpaceOnUse">
<stop stop-color="#E2E2E2"/>
<stop offset="0.0001" stop-color="white"/>
<stop offset="1" stop-color="#707070"/>
</linearGradient>
<linearGradient id="paint1_linear_41_204" x1="144.16" y1="76.7578" x2="144.16" y2="154.398" gradientUnits="userSpaceOnUse">
<stop stop-color="#E2E2E2"/>
<stop offset="0.0001" stop-color="white"/>
<stop offset="1" stop-color="#707070"/>
</linearGradient>
<linearGradient id="paint2_linear_41_204" x1="144.17" y1="45.2715" x2="144.17" y2="185.936" gradientUnits="userSpaceOnUse">
<stop stop-color="#E2E2E2"/>
<stop offset="0.0001" stop-color="white"/>
<stop offset="1" stop-color="#707070"/>
</linearGradient>
<linearGradient id="paint3_linear_41_204" x1="144.17" y1="97.0879" x2="144.17" y2="134.069" gradientUnits="userSpaceOnUse">
<stop stop-color="#E2E2E2"/>
<stop offset="0.0001" stop-color="white"/>
<stop offset="1" stop-color="#707070"/>
</linearGradient>
<linearGradient id="paint4_linear_41_204" x1="143.962" y1="16.2847" x2="143.962" y2="214.774" gradientUnits="userSpaceOnUse">
<stop stop-color="#E2E2E2"/>
<stop offset="0.0001" stop-color="white"/>
<stop offset="1" stop-color="#707070"/>
</linearGradient>
<linearGradient id="paint5_linear_41_204" x1="82.9814" y1="178.088" x2="82.9814" y2="247.489" gradientUnits="userSpaceOnUse">
<stop stop-color="#E2E2E2"/>
<stop offset="0.0001" stop-color="white"/>
<stop offset="1" stop-color="#707070"/>
</linearGradient>
<linearGradient id="paint6_linear_41_204" x1="82.9874" y1="160.016" x2="82.9874" y2="265.514" gradientUnits="userSpaceOnUse">
<stop stop-color="#E2E2E2"/>
<stop offset="0.0001" stop-color="white"/>
<stop offset="1" stop-color="#707070"/>
</linearGradient>
<linearGradient id="paint7_linear_41_204" x1="82.9369" y1="129.85" x2="82.9369" y2="295.626" gradientUnits="userSpaceOnUse">
<stop stop-color="#E2E2E2"/>
<stop offset="0.0001" stop-color="white"/>
<stop offset="1" stop-color="#707070"/>
</linearGradient>
<linearGradient id="paint8_linear_41_204" x1="89.8662" y1="40.8818" x2="89.8662" y2="75.6065" gradientUnits="userSpaceOnUse">
<stop stop-color="#E2E2E2"/>
<stop offset="0.0001" stop-color="white"/>
<stop offset="1" stop-color="#707070"/>
</linearGradient>
<linearGradient id="paint9_linear_41_204" x1="89.8186" y1="0" x2="89.8186" y2="116.509" gradientUnits="userSpaceOnUse">
<stop stop-color="#E2E2E2"/>
<stop offset="0.0001" stop-color="white"/>
<stop offset="1" stop-color="#707070"/>
</linearGradient>
</defs>
</svg>
