<svg width="1440" height="1861" viewBox="0 0 1440 1861" fill="none" xmlns="http://www.w3.org/2000/svg">
<g clip-path="url(#clip0_41_31)">
<g opacity="0.7">
<path opacity="0.7" d="M304.969 173.102C304.903 157.582 298.701 142.719 287.718 131.755C276.735 120.791 261.861 114.615 246.342 114.575C230.788 114.602 215.878 120.793 204.88 131.791C193.881 142.79 187.691 157.699 187.664 173.253C187.717 188.79 193.92 203.673 204.916 214.65C215.911 225.627 230.805 231.803 246.342 231.83C261.896 231.79 276.8 225.586 287.789 214.578C298.778 203.57 304.956 188.656 304.969 173.102V173.102ZM223.548 173.102C223.555 170.115 224.15 167.159 225.299 164.402C226.448 161.645 228.129 159.142 230.245 157.034C232.362 154.927 234.873 153.257 237.635 152.121C240.397 150.984 243.355 150.402 246.342 150.409C252.365 150.409 258.142 152.798 262.406 157.052C266.67 161.306 269.072 167.078 269.085 173.102C269.072 179.129 266.672 184.906 262.409 189.169C258.147 193.431 252.37 195.832 246.342 195.845C243.351 195.852 240.388 195.268 237.623 194.128C234.858 192.988 232.345 191.314 230.227 189.201C228.11 187.089 226.43 184.579 225.284 181.817C224.138 179.054 223.548 176.092 223.548 173.102V173.102Z" fill="#031B88"/>
<path opacity="0.7" d="M350.253 173.102C350.213 145.546 339.255 119.128 319.78 99.6335C300.304 80.1388 273.897 69.1557 246.341 69.0889C218.75 69.1022 192.291 80.0618 172.771 99.5622C153.252 119.063 142.267 145.511 142.227 173.102C142.253 200.697 153.234 227.153 172.757 246.656C192.279 266.16 218.745 277.115 246.341 277.115C273.901 277.062 300.316 266.083 319.794 246.585C339.273 227.088 350.226 200.662 350.253 173.102ZM160.219 173.102C160.219 150.315 169.271 128.461 185.384 112.348C201.497 96.2347 223.351 87.1825 246.139 87.1825C268.926 87.1825 290.78 96.2347 306.893 112.348C323.006 128.461 332.058 150.315 332.058 173.102C332.058 195.889 323.006 217.743 306.893 233.856C290.78 249.969 268.926 259.021 246.139 259.021C223.386 258.968 201.584 249.892 185.515 233.785C169.446 217.678 160.421 195.854 160.421 173.102H160.219Z" fill="#031B88"/>
<path opacity="0.7" d="M234.466 345.497C238.357 345.497 242.35 345.902 246.242 345.902H246.697V329.981C250.285 329.981 253.873 329.981 257.411 329.526L258.523 345.447C262.415 345.194 266.357 344.79 270.249 344.234L268.025 328.465C271.613 327.96 275.101 327.353 278.588 326.646L281.721 342.01C285.563 341.201 289.404 340.292 293.144 339.23L288.848 324.068C292.285 323.108 295.671 322.046 298.956 320.833L304.364 335.996C308.053 334.631 311.743 333.216 315.331 331.599L309.064 316.74C312.299 315.274 315.533 313.758 318.667 312.09L326.096 326.292C329.584 324.472 333.02 322.501 336.205 320.48L327.865 306.834C330.898 304.964 333.829 302.992 336.761 300.92L346.009 313.96C349.379 311.669 352.512 309.293 355.41 306.834L345.302 294.451C348.031 292.177 350.71 289.801 353.287 287.375L364.255 299.05C367.152 296.388 369.932 293.609 372.594 290.711L360.868 279.794C363.294 277.166 365.67 274.74 367.894 271.708L380.327 281.816C382.803 278.783 385.381 275.599 387.453 272.415L374.363 263.166C376.384 260.285 378.406 257.304 380.276 254.221L393.922 262.509C395.944 259.174 397.864 255.686 399.684 252.401L385.633 244.972C387.251 241.838 388.818 238.603 390.233 235.318L404.89 241.636C406.456 238.047 407.922 234.358 409.186 230.668L394.023 225.362C395.236 221.975 396.298 218.589 397.258 215.254L412.673 219.499C413.684 215.708 414.644 211.867 415.402 208.026L399.785 204.842C400.543 201.355 401.099 197.817 401.554 194.279L417.373 196.402C417.879 192.51 418.283 188.568 418.536 184.676L402.615 183.615C402.868 180.178 403.02 176.741 403.02 173.204V172.951H418.94C418.94 169.009 418.94 165.066 418.485 161.175L402.565 162.287C402.312 158.698 401.958 155.16 401.503 151.623L417.272 149.449C416.767 145.558 416.059 141.666 415.301 137.825L399.684 141.06C398.926 137.572 398.066 134.135 397.106 130.699L412.268 126.352C411.207 122.612 409.994 118.822 408.68 115.132L393.518 120.489C392.305 117.103 390.94 113.818 389.525 110.381L404.182 103.963C402.615 100.374 400.897 96.7857 399.128 93.349L384.976 100.728C383.309 97.5439 381.59 94.4609 379.922 91.4284L393.568 83.0892C391.496 79.7535 389.323 76.4178 387.049 72.981L374.009 82.23C371.937 79.3491 369.814 76.4683 367.54 73.7391L379.922 63.6309C377.446 60.5985 374.868 57.6166 372.139 54.7863L360.464 65.7537C358.038 63.1255 355.511 60.5985 352.883 58.1725L363.8 46.447C360.969 43.7684 357.937 41.393 354.905 38.7143L344.797 51.1473C342.017 48.873 339.136 46.7503 336.255 44.6781L345.453 31.588C342.269 29.3137 338.934 27.1404 335.345 25.1188L327.057 38.7648C324.024 36.8948 320.891 35.1764 317.707 33.7107L325.035 19.5088C321.548 17.6893 317.959 15.9709 314.371 14.4547L308.003 29.1621C304.768 27.6964 301.432 26.4329 297.895 25.2199L303.252 10.0576C299.562 8.74356 295.772 7.53057 291.981 6.51976L287.685 21.682C284.248 20.7217 280.812 19.8625 277.324 19.155L280.509 3.53784C276.667 2.72919 272.776 2.07216 268.884 1.56675L266.761 17.386C263.224 16.8806 259.686 16.5268 256.097 16.2741L257.159 0.404317C253.318 0.404317 249.426 0 245.585 0V15.9204C241.996 15.9204 238.458 15.9204 234.87 16.3247L233.809 0.404317C229.867 0.657021 225.924 1.06136 222.083 1.61731L224.257 17.4366C220.719 17.8914 217.181 18.498 213.693 19.2055L210.964 3.99271C207.123 4.75083 203.282 5.7111 199.491 6.77246L203.838 21.9347C200.351 22.9455 196.964 24.0069 193.73 25.1693L188.373 10.0071C184.683 11.3212 180.994 12.7868 177.405 14.3536L183.773 29.0104C180.488 30.4256 177.304 31.9418 174.12 33.6097L166.741 19.4077C163.304 21.2271 159.817 23.1477 156.633 25.2199L164.972 38.8659C161.94 40.6854 158.958 42.707 156.077 44.7792L146.777 31.6891C143.593 33.9634 140.46 36.3389 137.427 38.8154L147.535 51.1979C144.756 53.4722 142.077 55.8476 139.5 58.2736L128.532 46.5987C125.702 49.2773 122.872 52.0571 120.193 54.9379L131.918 65.8547C129.492 68.4829 126.864 70.9088 124.893 73.8907L112.46 63.7826C110 66.815 107.625 69.9486 105.334 73.1832L118.424 82.3816C116.335 85.313 114.364 88.2949 112.511 91.3273L98.8647 83.0386C96.8431 86.3743 94.8719 89.8616 93.0525 93.1468L107.305 100.526C105.637 103.71 104.07 106.894 102.655 110.179L87.6951 104.468C86.1284 108.107 84.6627 111.796 83.3486 115.486L98.5109 120.843C97.3653 124.213 96.3039 127.582 95.3268 130.951L80.1645 126.706C79.1032 130.446 78.1935 134.338 77.3848 138.128L93.0019 141.363C92.2944 144.85 91.6878 148.388 91.233 151.926L75.0599 149.955C74.504 153.796 74.1502 157.738 73.8469 161.68L89.7673 162.742C89.7673 166.229 89.4135 169.767 89.4135 173.305H73.4932C73.4932 177.196 73.4932 181.138 73.8975 185.081L89.8178 183.969C90.0705 187.557 90.4244 191.095 90.8792 194.633L75.0599 196.806C75.6159 200.647 76.2729 204.589 77.0815 208.431L92.6987 205.196C93.4063 208.683 94.316 212.12 95.2763 215.557L79.8613 219.853C80.9226 223.643 82.1357 227.434 83.4497 231.123L98.612 225.766C99.7744 229.152 101.088 232.437 102.554 235.874L87.7962 242.04C89.3125 245.629 91.0309 249.217 92.8503 252.654L107.052 245.275C108.72 248.459 110.439 251.592 112.106 254.625L98.4604 262.914C100.516 266.283 102.689 269.652 104.98 273.022L118.02 263.773C120.092 266.704 122.215 269.534 124.489 272.314L112.106 282.422C114.583 285.455 117.16 288.437 119.839 291.318L131.565 280.35C133.991 282.978 136.619 285.404 139.095 287.931L128.178 299.657C131.059 302.335 134.041 304.711 137.074 307.39L147.182 295.007C149.911 297.231 152.792 299.404 155.723 301.476L146.474 314.516C149.658 316.79 152.994 318.963 156.33 321.036L164.618 307.39C167.651 309.209 170.784 310.927 173.968 312.444L166.589 326.646C170.077 328.465 173.665 330.183 177.254 331.7L183.622 317.043C186.907 318.458 190.243 319.772 193.73 320.985L188.423 336.147C192.113 337.461 195.903 338.674 199.643 339.736L203.939 324.573C207.376 325.534 210.813 326.393 214.351 327.1L210.964 342.313C214.805 343.122 218.697 343.779 222.589 344.284L224.762 328.516C228.249 328.97 231.838 329.324 235.376 329.577L234.466 345.497ZM116.402 173.102C116.442 138.662 130.149 105.645 154.512 81.3007C178.874 56.9569 211.902 43.2763 246.343 43.263C280.771 43.3031 313.778 56.9938 338.127 81.3333C362.476 105.673 376.179 138.675 376.233 173.102C376.193 207.539 362.495 240.554 338.145 264.904C313.794 289.255 280.78 302.952 246.343 302.992C211.893 302.979 178.858 289.292 154.494 264.937C130.129 240.582 116.429 207.552 116.402 173.102V173.102Z" fill="#031B88"/>
<path opacity="0.7" d="M81.5347 1065.66C81.5347 1050.76 77.118 1036.2 68.8433 1023.82C60.5686 1011.43 48.8075 1001.78 35.0471 996.082C21.2868 990.382 6.14527 988.891 -8.46264 991.797C-23.0706 994.702 -36.4888 1001.87 -47.0206 1012.41C-57.5523 1022.94 -64.7244 1036.36 -67.6301 1050.96C-70.5358 1065.57 -69.0445 1080.71 -63.3448 1094.47C-57.6451 1108.23 -47.9929 1120 -35.6089 1128.27C-23.2249 1136.54 -8.6653 1140.96 6.2288 1140.96C26.1971 1140.95 45.3436 1133.01 59.4633 1118.89C73.583 1104.77 81.5213 1085.62 81.5347 1065.66ZM-62.9616 1065.66C-62.9616 1051.97 -58.9037 1038.59 -51.301 1027.22C-43.6982 1015.84 -32.8921 1006.97 -20.2492 1001.73C-7.60634 996.495 6.30551 995.125 19.7271 997.795C33.1488 1000.46 45.4773 1007.05 55.1538 1016.73C64.8302 1026.41 71.42 1038.74 74.0897 1052.16C76.7594 1065.58 75.3893 1079.49 70.1524 1092.13C64.9155 1104.78 56.0472 1115.58 44.6689 1123.19C33.2906 1130.79 19.9134 1134.85 6.2288 1134.85C-12.1134 1134.82 -29.6968 1127.52 -42.6667 1114.55C-55.6367 1101.58 -62.9349 1084 -62.9616 1065.66V1065.66Z" fill="#031B88"/>
<path opacity="0.7" d="M54.2932 1065.65C54.3032 1056.2 51.5076 1046.95 46.2601 1039.08C41.0126 1031.21 33.5489 1025.07 24.8133 1021.45C16.0778 1017.82 6.46284 1016.87 -2.81504 1018.7C-12.0929 1020.54 -20.6169 1025.09 -27.3085 1031.78C-34.0001 1038.46 -38.5587 1046.98 -40.4077 1056.26C-42.2566 1065.53 -41.3127 1075.15 -37.6955 1083.89C-34.0782 1092.63 -27.9501 1100.1 -20.0864 1105.35C-12.2228 1110.61 -2.97688 1113.42 6.48152 1113.42C19.1532 1113.42 31.3067 1108.38 40.2716 1099.43C49.2366 1090.47 54.2798 1078.33 54.2932 1065.65V1065.65Z" fill="#031B88"/>
<path opacity="0.7" d="M122.827 1065.65C122.837 1042.59 116.008 1020.04 103.202 1000.86C90.3959 981.681 72.1893 966.729 50.8847 957.896C29.5802 949.063 6.13461 946.747 -16.4865 951.24C-39.1076 955.733 -59.888 966.834 -76.1995 983.139C-92.5111 999.443 -103.621 1020.22 -108.124 1042.84C-112.627 1065.46 -110.321 1088.9 -101.497 1110.21C-92.6739 1131.52 -77.7294 1149.73 -58.5539 1162.55C-39.3784 1175.36 -16.8333 1182.2 6.22969 1182.2C37.1323 1182.16 66.7584 1169.87 88.6146 1148.02C110.471 1126.18 122.774 1096.56 122.827 1065.65V1065.65ZM-88.9388 1065.65C-88.9588 1046.82 -83.39 1028.39 -72.9371 1012.72C-62.4843 997.048 -47.6171 984.827 -30.2169 977.606C-12.8168 970.386 6.33433 968.488 24.813 972.155C43.2917 975.822 60.2676 984.888 73.5923 998.205C86.917 1011.52 95.9918 1028.49 99.6683 1046.97C103.345 1065.45 101.458 1084.6 94.2462 1102C87.0345 1119.41 74.8223 1134.28 59.1548 1144.74C43.4873 1155.2 25.0687 1160.78 6.22969 1160.77C-18.9895 1160.73 -43.1651 1150.7 -61.0025 1132.87C-78.8399 1115.04 -88.8853 1090.87 -88.9388 1065.65V1065.65Z" fill="#031B88"/>
<path opacity="0.7" d="M182.616 1065.65C182.626 1030.77 172.29 996.658 152.914 967.645C133.538 938.631 105.994 916.015 73.7642 902.657C41.5345 889.299 6.06721 885.799 -28.152 892.599C-62.3711 899.399 -93.8052 916.195 -118.479 940.861C-143.152 965.527 -159.956 996.956 -166.766 1031.17C-173.576 1065.39 -170.086 1100.86 -156.737 1133.09C-143.388 1165.33 -120.78 1192.88 -91.7724 1212.26C-62.7645 1231.64 -28.6598 1241.99 6.22857 1241.99C52.9843 1241.94 97.8104 1223.34 130.876 1190.29C163.943 1157.23 182.549 1112.41 182.616 1065.65ZM-157.878 1065.65C-157.888 1033.18 -148.267 1001.44 -130.233 974.434C-112.199 947.431 -86.5621 926.383 -56.5643 913.952C-26.5665 901.521 6.44405 898.266 38.2921 904.599C70.14 910.931 99.3946 926.566 122.355 949.527C145.316 972.488 160.952 1001.74 167.284 1033.59C173.616 1065.44 170.361 1098.45 157.93 1128.45C145.5 1158.44 124.451 1184.08 97.4481 1202.12C70.445 1220.15 38.7 1229.77 6.22857 1229.76C-37.2962 1229.73 -79.0322 1212.44 -109.818 1181.67C-140.604 1150.9 -157.925 1109.18 -157.979 1065.65H-157.878Z" fill="#031B88"/>
<path opacity="0.7" d="M6.72789 1286.31C22.159 1286.23 37.5392 1284.54 52.619 1281.26L59.8464 1315.27C77.3169 1311.54 94.3428 1305.97 110.64 1298.65L96.3874 1266.91C110.427 1260.57 123.774 1252.79 136.214 1243.71L156.784 1271.86C171.159 1261.33 184.405 1249.34 196.307 1236.08L170.43 1212.83C180.704 1201.34 189.765 1188.83 197.469 1175.48L227.794 1192.86C236.708 1177.39 243.975 1161.03 249.476 1144.04L216.018 1133.48C220.781 1118.81 223.983 1103.68 225.57 1088.35L260.089 1091.88C261.909 1074.16 261.909 1056.29 260.089 1038.56L225.57 1042.2C223.932 1026.87 220.679 1011.76 215.866 997.12L248.97 986.354C243.405 969.383 236.088 953.038 227.137 937.582L196.812 955.07C189.072 941.752 179.977 929.27 169.672 917.821L195.498 894.471C183.498 881.354 170.187 869.5 155.773 859.092L135.557 887.294C123.091 878.222 109.709 870.48 95.6292 864.197L109.882 832.255C93.5699 825.023 76.546 819.518 59.0882 815.83L51.9114 849.793C36.9527 846.65 21.7099 845.058 6.42465 845.042H6.17193V810.371C-11.663 810.366 -29.4494 812.229 -46.896 815.931L-39.6686 849.945C-54.7373 853.158 -69.4249 857.952 -83.4875 864.248L-97.8917 832.255C-114.171 839.518 -129.638 848.48 -144.036 858.991L-123.516 887.143C-136.051 896.263 -147.602 906.663 -157.985 918.175L-183.862 894.875C-195.792 908.154 -206.31 922.636 -215.248 938.088L-184.923 955.474C-192.656 968.806 -198.958 982.918 -203.724 997.575L-236.778 986.86C-242.286 1003.84 -245.98 1021.36 -247.796 1039.12L-213.327 1042.66C-214.085 1050.24 -214.489 1057.82 -214.489 1065.65C-214.494 1073.4 -214.089 1081.15 -213.276 1088.85L-247.796 1092.44C-245.921 1110.18 -242.211 1127.67 -236.727 1144.65L-203.623 1133.93C-198.837 1148.56 -192.518 1162.64 -184.771 1175.93L-215.096 1193.37C-206.031 1208.85 -195.358 1223.34 -183.255 1236.58L-157.378 1213.28C-147.051 1224.71 -135.567 1235.05 -123.112 1244.11L-143.328 1272.26C-128.913 1282.78 -113.429 1291.74 -97.1336 1299L-82.9316 1267.21C-68.8718 1273.51 -54.1834 1278.31 -39.1126 1281.51L-46.7949 1315.48C-29.3624 1319.15 -11.5935 1321 6.22252 1320.99H6.8795L6.72789 1286.31ZM-205.544 1065.65C-205.574 1023.82 -193.2 982.925 -169.988 948.127C-146.776 913.33 -113.768 886.196 -75.1363 870.156C-36.5046 854.117 6.01547 849.892 47.0481 858.015C88.0808 866.139 125.784 886.247 155.389 915.796C184.995 945.345 205.175 983.01 213.377 1024.03C221.579 1065.04 217.435 1107.57 201.47 1146.23C185.504 1184.9 158.433 1217.96 123.68 1241.24C88.9267 1264.51 48.0516 1276.96 6.22252 1277.01C-49.8276 1276.95 -103.565 1254.66 -143.213 1215.04C-182.86 1175.42 -205.184 1121.7 -205.291 1065.65H-205.544Z" fill="#031B88"/>
<path opacity="0.7" d="M-172.742 557.161C-166.781 557.769 -160.792 558.073 -154.8 558.071H-154.547V533.306C-143.759 533.276 -133.009 532.021 -122.504 529.566L-116.945 553.775C-111.114 552.4 -105.361 550.712 -99.7104 548.721L-107.797 525.22C-97.6032 521.692 -87.838 517.03 -78.6854 511.321L-65.5448 532.396C-60.4907 529.212 -55.4366 525.776 -50.8879 522.288L-66.0502 502.678C-57.5655 496.013 -49.8371 488.437 -43.0036 480.087L-23.6969 495.754C-19.9339 491.13 -16.4246 486.304 -13.1845 481.3L-34.0073 467.755C-28.1005 458.704 -23.2186 449.025 -19.4515 438.896L3.84783 447.488C5.86947 441.878 7.6384 436.116 8.90192 430.354L-15.1556 424.34C-12.5394 413.852 -11.0985 403.104 -10.8596 392.297L13.9054 392.853C14.0401 386.885 13.8715 380.913 13.4001 374.962L-11.365 377.034C-12.2515 366.285 -14.3539 355.671 -17.632 345.395L6.02106 337.865C4.20696 332.159 2.08107 326.558 -0.347066 321.085L-23.0399 331.193C-27.408 321.332 -32.8667 311.991 -39.3141 303.345L-19.401 288.486C-22.9567 283.7 -26.7697 279.111 -30.8232 274.739L-49.0179 291.468C-56.3574 283.554 -64.5435 276.47 -73.4292 270.342L-59.3788 249.873C-64.265 246.492 -69.3261 243.371 -74.5411 240.523L-86.3676 262.357C-95.8458 257.211 -105.885 253.175 -116.288 250.328L-109.667 226.372C-115.442 224.786 -121.296 223.504 -127.205 222.53L-131.197 246.992C-139 245.711 -146.893 245.069 -154.8 245.072C-157.681 245.072 -160.612 245.072 -163.493 245.324L-165.06 220.711C-171.02 221.082 -176.958 221.757 -182.85 222.733L-178.756 247.194C-189.398 249.002 -199.805 251.985 -209.788 256.09L-219.24 233.144C-224.765 235.45 -230.163 238.048 -235.413 240.927L-223.687 262.508C-233.155 267.678 -242.02 273.882 -250.12 281.006L-266.546 262.357C-271.001 266.316 -275.252 270.5 -279.282 274.891L-260.936 291.468C-268.226 299.434 -274.616 308.18 -279.99 317.547L-301.571 305.215C-304.526 310.464 -307.209 315.862 -309.607 321.388L-286.863 331.496C-291.211 341.38 -294.432 351.722 -296.466 362.326L-320.827 357.677C-321.944 363.542 -322.737 369.464 -323.202 375.417L-298.488 377.438C-298.791 381.38 -298.993 385.272 -298.993 389.265C-298.994 396.114 -298.504 402.954 -297.527 409.734L-322.09 413.221C-321.231 419.134 -320.069 425.048 -318.653 430.809L-294.596 424.744C-291.943 435.258 -288.093 445.432 -283.123 455.069L-305.26 466.39C-302.529 471.696 -299.526 476.858 -296.264 481.856L-275.441 468.26C-269.53 477.272 -262.63 485.596 -254.871 493.076L-272.156 511.018C-267.86 515.111 -263.311 519.054 -258.611 522.743L-243.449 503.083C-234.935 509.747 -225.694 515.426 -215.904 520.014L-226.467 542.505C-221.015 545.043 -215.43 547.287 -209.738 549.227L-201.651 525.725C-191.451 529.234 -180.889 531.59 -170.164 532.75L-172.742 557.161ZM-278.17 389.164C-278.17 364.771 -270.936 340.927 -257.384 320.646C-243.831 300.365 -224.568 284.559 -202.031 275.226C-179.495 265.894 -154.697 263.455 -130.773 268.217C-106.85 272.98 -84.877 284.73 -67.6324 301.981C-50.3879 319.233 -38.6468 341.211 -33.8942 365.136C-29.1416 389.061 -31.5909 413.858 -40.9325 436.391C-50.274 458.924 -66.088 478.18 -86.3745 491.725C-106.661 505.269 -130.509 512.493 -154.901 512.483C-187.59 512.443 -218.929 499.436 -242.039 476.316C-265.149 453.197 -278.143 421.853 -278.17 389.164V389.164Z" fill="#031B88"/>
<path opacity="0.7" d="M-203.468 1729.86C-196.342 1730.57 -189.114 1730.97 -181.887 1730.97H-181.584V1701.15C-168.528 1701.07 -155.525 1699.51 -142.819 1696.5L-136.148 1725.67C-129.143 1724.03 -122.227 1722.04 -115.426 1719.7L-125.13 1691.45C-112.842 1687.2 -101.075 1681.57 -90.0543 1674.67L-74.235 1699.94C-68.1425 1696.14 -62.2547 1692.03 -56.5963 1687.61L-75.0437 1664.01C-64.7826 1656.02 -55.4576 1646.9 -47.2462 1636.82L-24.0985 1655.72C-19.5502 1650.15 -15.299 1644.35 -11.3622 1638.33L-36.6327 1622.01C-29.5392 1611.11 -23.6743 1599.47 -19.1455 1587.29L8.8541 1597.39C11.3569 1590.64 13.4829 1583.76 15.2223 1576.77L-13.5355 1570.15C-10.4032 1557.55 -8.70772 1544.63 -8.48138 1531.64L21.3883 1532.3C21.3883 1525.17 21.3883 1517.89 20.7312 1510.77L-9.03733 1513.29C-10.1225 1500.33 -12.6656 1487.53 -16.6185 1475.14L11.8361 1466.09C9.64691 1459.22 7.09948 1452.47 4.20435 1445.87L-23.1383 1457.95C-28.3803 1446.07 -34.9412 1434.81 -42.6976 1424.39L-18.7412 1406.5C-23.0293 1400.75 -27.6181 1395.24 -32.4883 1389.97L-54.4736 1410.19C-63.3033 1400.71 -73.1508 1392.24 -83.8378 1384.92L-66.9066 1360.26C-72.8447 1356.19 -78.9848 1352.43 -85.3035 1348.99L-99.5054 1375.27C-110.942 1369.11 -123.028 1364.25 -135.541 1360.76L-127.606 1331.95C-134.531 1330.06 -141.549 1328.53 -148.631 1327.35L-153.685 1356.82C-163.056 1355.26 -172.539 1354.46 -182.039 1354.44C-185.577 1354.44 -189.064 1354.44 -192.501 1354.8L-194.32 1325.03C-201.484 1325.44 -208.62 1326.23 -215.699 1327.4L-210.645 1356.87C-223.459 1359.02 -235.988 1362.62 -247.995 1367.58L-259.063 1339.69C-265.705 1342.43 -272.2 1345.52 -278.521 1348.94L-264.269 1375.22C-275.678 1381.44 -286.358 1388.91 -296.109 1397.5L-315.871 1375.01C-321.185 1379.8 -326.246 1384.86 -331.033 1390.18L-309.048 1410.39C-317.835 1419.97 -325.531 1430.5 -331.993 1441.78L-357.971 1426.92C-361.537 1433.17 -364.776 1439.59 -367.675 1446.18L-340.282 1458.15C-345.49 1470.05 -349.355 1482.5 -351.805 1495.25L-381.119 1489.74C-382.486 1496.79 -383.448 1503.91 -384 1511.07L-354.231 1513.5C-354.636 1518.2 -354.888 1522.95 -354.888 1527.75C-354.863 1535.98 -354.272 1544.21 -353.12 1552.36L-382.635 1556.56C-381.659 1563.67 -380.275 1570.73 -378.491 1577.68L-350.037 1570.15C-346.81 1582.73 -342.182 1594.9 -336.239 1606.44L-362.874 1620.09C-359.576 1626.49 -355.949 1632.71 -352.008 1638.74L-326.737 1622.31C-319.624 1633.19 -311.299 1643.23 -301.922 1652.23L-322.744 1673.81C-317.569 1678.79 -312.137 1683.5 -306.47 1687.91L-288.073 1664.31C-277.819 1672.25 -266.716 1679.03 -254.969 1684.53L-267.604 1711.62C-261.099 1714.67 -254.435 1717.37 -247.641 1719.7L-237.937 1691.4C-225.65 1695.66 -212.915 1698.49 -199.981 1699.84L-203.468 1729.86ZM-330.376 1527.7C-330.346 1498.35 -321.62 1469.68 -305.3 1445.29C-288.98 1420.91 -265.799 1401.9 -238.684 1390.69C-211.57 1379.47 -181.739 1376.54 -152.96 1382.27C-124.181 1388 -97.746 1402.12 -76.9936 1422.87C-56.2413 1443.62 -42.1031 1470.05 -36.365 1498.82C-30.6269 1527.6 -33.5465 1557.43 -44.755 1584.55C-55.9634 1611.67 -74.9577 1634.86 -99.3384 1651.18C-123.719 1667.51 -152.392 1676.25 -181.735 1676.29C-221.118 1676.25 -258.873 1660.58 -286.707 1632.71C-314.54 1604.85 -330.174 1567.08 -330.174 1527.7H-330.376Z" fill="#031B88"/>
<path opacity="0.7" d="M339.801 583.14C339.801 556.649 331.945 530.752 317.226 508.726C302.507 486.699 281.586 469.533 257.11 459.397C232.634 449.262 205.702 446.612 179.72 451.784C153.738 456.956 129.874 469.717 111.145 488.453C92.416 507.189 79.6641 531.058 74.502 557.042C69.3398 583.026 71.9994 609.957 82.1442 634.429C92.2891 658.902 109.463 679.816 131.495 694.526C153.527 709.237 179.427 717.084 205.918 717.074C223.504 717.074 240.918 713.609 257.165 706.878C273.411 700.146 288.173 690.28 300.606 677.842C313.039 665.405 322.899 650.64 329.624 634.391C336.35 618.141 339.808 600.726 339.801 583.14V583.14ZM141.782 583.14C141.792 570.458 145.562 558.062 152.616 547.522C159.669 536.981 169.689 528.769 181.409 523.922C193.13 519.076 206.024 517.813 218.462 520.293C230.9 522.773 242.323 528.886 251.288 537.858C260.252 546.829 266.356 558.257 268.826 570.697C271.297 583.137 270.024 596.03 265.168 607.746C260.312 619.463 252.091 629.477 241.545 636.522C230.999 643.567 218.601 647.327 205.918 647.327C197.492 647.327 189.148 645.667 181.363 642.44C173.578 639.214 166.506 634.485 160.549 628.524C154.593 622.563 149.87 615.487 146.65 607.7C143.43 599.913 141.775 591.567 141.782 583.14Z" fill="#031B88"/>
<path opacity="0.7" d="M206.317 763.318C215.078 763.292 223.827 762.65 232.498 761.398L236.996 792.025C240.988 791.469 244.931 790.711 248.822 789.953L242.606 759.629C251.191 757.824 259.636 755.409 267.876 752.401L278.49 781.513C282.28 780.098 285.97 778.632 289.659 777.015L277.378 748.611C285.375 745.093 293.125 741.041 300.576 736.481L316.901 762.813C320.287 760.741 323.673 758.517 327.009 756.192L309.219 730.921C316.393 725.968 323.154 720.441 329.435 714.395L350.763 737.037C353.695 734.358 356.575 731.427 359.355 728.546L336.763 707.167C342.824 700.886 348.368 694.125 353.341 686.951L378.611 704.893C380.886 701.608 383.16 698.221 385.283 694.785L358.85 678.359C363.511 670.966 367.6 663.228 371.081 655.211L399.586 667.594C401.152 663.854 402.669 660.114 404.033 656.374L374.922 645.255C377.983 637.027 380.416 628.58 382.2 619.984L412.524 626.352C413.333 622.461 414.091 618.417 414.697 614.475L384.019 609.876C385.311 601.225 385.986 592.493 386.041 583.746H417.022V582.736C417.022 579.097 417.022 575.357 417.022 571.718L386.041 573.386C385.591 564.76 384.51 556.179 382.806 547.711L413.131 541.696C412.322 537.704 411.412 533.812 410.401 529.92L380.431 537.704C378.196 529.263 375.376 520.988 371.99 512.939L400.495 500.859C398.979 497.119 397.261 493.48 395.441 489.892L367.644 503.74C363.802 495.899 359.394 488.348 354.453 481.148L379.824 463.308C377.533 459.938 375.158 456.704 372.698 453.604L348.186 472.708C342.825 465.784 336.964 459.264 330.648 453.199L352.128 430.81C349.297 428.03 346.316 425.301 343.283 422.723L323.067 446.326C316.442 440.609 309.378 435.421 301.941 430.81L318.569 404.579C315.132 402.456 311.695 400.384 308.157 398.413L292.995 425.604C285.367 421.301 277.407 417.617 269.19 414.586L280.158 385.525C276.367 384.161 272.526 382.846 268.685 381.634L259.436 411.2C251.169 408.599 242.723 406.605 234.165 405.236L239.22 374.912C235.227 374.255 231.234 373.749 227.241 373.345L224.158 404.225C218.183 403.572 212.176 403.252 206.166 403.265C203.437 403.265 200.707 403.265 198.029 403.265L196.361 372.334C192.318 372.334 188.325 372.839 184.332 373.244L187.516 404.074C178.793 404.948 170.145 406.451 161.639 408.572L154.109 378.601C150.167 379.511 146.275 380.673 142.535 381.836L151.834 411.402C143.484 414.026 135.341 417.27 127.474 421.106L113.929 393.056C110.34 394.825 106.802 396.745 103.265 398.615L118.427 425.806C110.752 429.985 103.433 434.785 96.5427 440.16L77.5899 415.496C74.4563 417.922 71.2723 420.55 68.2904 423.077L88.5067 446.629C81.8376 452.304 75.6192 458.489 69.9076 465.127L46.4567 444.911C43.8791 447.943 41.4026 451.077 38.825 454.261L63.4384 473.264C58.0461 480.178 53.1644 487.475 48.8321 495.098L21.8433 479.935C19.9228 483.423 18.0022 487.011 16.2838 490.6L44.1824 503.74C40.2667 511.591 36.9715 519.736 34.3269 528.101L4.81107 518.902C3.59809 522.643 2.48617 526.585 1.47535 530.476L31.3955 538.159C29.2373 546.627 27.7001 555.242 26.7963 563.934L-4.03358 560.649C-4.43791 564.642 -4.7412 568.635 -4.94336 572.678L25.9876 574.194C25.9876 577.126 25.735 580.158 25.735 583.19C25.7064 588.931 26.0101 594.669 26.6447 600.374L-4.2863 603.306C-3.88198 607.315 -3.37655 611.308 -2.77006 615.284L27.5545 610.533C28.873 619.212 30.8497 627.778 33.4677 636.157L4.05291 645.255C5.21535 649.096 6.57997 652.937 7.94457 656.677L37.0056 645.912C40.0695 654.106 43.7003 662.077 47.8718 669.767L20.7314 684.929C22.6014 688.366 24.6736 691.904 26.7458 695.037L53.1281 678.612C57.721 686.033 62.8922 693.08 68.5936 699.687L44.8899 719.903C47.4844 722.97 50.163 725.952 52.9259 728.849L75.4672 707.47C81.431 713.735 87.8687 719.531 94.7232 724.806L75.5177 749.268C78.7018 751.744 81.8858 754.322 85.171 756.445L102.961 731.174C110.092 736.253 117.632 740.733 125.503 744.567L111.604 772.365C115.192 774.184 118.882 775.903 122.521 777.419L134.802 748.914C142.827 752.401 151.106 755.273 159.567 757.506L151.683 787.426C155.524 788.487 159.466 789.397 163.358 790.206L169.524 759.881C178.11 761.611 186.808 762.726 195.552 763.217L193.834 794.148C197.776 794.148 201.819 794.502 205.711 794.502H206.317V763.318ZM51.814 583.14C51.814 552.65 60.8561 522.845 77.7965 497.494C94.7369 472.143 118.815 452.385 146.985 440.719C175.155 429.054 206.152 426.004 236.055 431.956C265.959 437.908 293.426 452.594 314.982 474.158C336.538 495.721 351.215 523.192 357.157 553.098C363.1 583.003 360.04 613.999 348.365 642.165C336.69 670.332 316.924 694.403 291.568 711.335C266.211 728.267 236.403 737.3 205.913 737.29C165.051 737.236 125.879 720.977 96.9898 692.078C68.1008 663.179 51.8541 624.002 51.814 583.14V583.14Z" fill="#031B88"/>
<path opacity="0.7" d="M359.611 1489.64C359.611 1467.65 353.09 1446.15 340.872 1427.87C328.655 1409.58 311.289 1395.33 290.972 1386.91C270.655 1378.5 248.298 1376.3 226.729 1380.59C205.161 1384.88 185.348 1395.47 169.798 1411.02C154.248 1426.57 143.658 1446.38 139.368 1467.95C135.078 1489.52 137.28 1511.87 145.695 1532.19C154.111 1552.51 168.363 1569.87 186.648 1582.09C204.933 1594.31 226.43 1600.83 248.421 1600.83C277.911 1600.83 306.192 1589.11 327.044 1568.26C347.897 1547.41 359.611 1519.13 359.611 1489.64ZM155.932 1489.64C155.932 1471.35 161.354 1453.48 171.514 1438.28C181.674 1423.07 196.114 1411.23 213.008 1404.23C229.902 1397.24 248.491 1395.41 266.424 1398.98C284.356 1402.55 300.827 1411.36 313.753 1424.29C326.679 1437.23 335.479 1453.7 339.04 1471.64C342.601 1489.57 340.763 1508.16 333.759 1525.05C326.755 1541.94 314.899 1556.37 299.691 1566.52C284.482 1576.68 266.605 1582.09 248.32 1582.08C223.817 1582.05 200.325 1572.3 183.003 1554.97C165.681 1537.64 155.945 1514.14 155.932 1489.64V1489.64Z" fill="#031B88"/>
<path opacity="0.7" d="M328.32 1489.64C328.32 1473.82 323.628 1458.35 314.837 1445.19C306.045 1432.04 293.55 1421.78 278.931 1415.73C264.312 1409.67 248.225 1408.09 232.705 1411.17C217.186 1414.26 202.93 1421.88 191.741 1433.07C180.552 1444.26 172.932 1458.51 169.845 1474.03C166.758 1489.55 168.342 1505.64 174.398 1520.26C180.453 1534.88 190.708 1547.37 203.865 1556.16C217.022 1564.96 232.49 1569.65 248.314 1569.65C269.525 1569.62 289.859 1561.18 304.857 1546.19C319.856 1531.19 328.293 1510.85 328.32 1489.64V1489.64ZM174.221 1489.64C174.221 1474.99 178.566 1460.66 186.708 1448.48C194.849 1436.29 206.421 1426.8 219.96 1421.19C233.498 1415.58 248.396 1414.11 262.769 1416.97C277.141 1419.83 290.343 1426.89 300.706 1437.25C311.068 1447.61 318.124 1460.81 320.983 1475.19C323.842 1489.56 322.375 1504.46 316.767 1518C311.159 1531.53 301.662 1543.11 289.478 1551.25C277.293 1559.39 262.968 1563.73 248.314 1563.73C228.671 1563.71 209.841 1555.89 195.952 1542C182.062 1528.11 174.248 1509.28 174.221 1489.64V1489.64Z" fill="#031B88"/>
<path opacity="0.7" d="M393.267 1489.64C393.257 1460.97 384.747 1432.95 368.813 1409.12C352.88 1385.29 330.238 1366.72 303.751 1355.76C277.264 1344.8 248.12 1341.93 220.006 1347.53C191.892 1353.13 166.068 1366.94 145.802 1387.21C125.535 1407.49 111.735 1433.31 106.146 1461.43C100.557 1489.55 103.43 1518.69 114.403 1545.17C125.375 1571.66 143.954 1594.29 167.79 1610.22C191.626 1626.14 219.649 1634.64 248.316 1634.64C286.755 1634.6 323.609 1619.31 350.785 1592.12C377.961 1564.94 393.24 1528.08 393.267 1489.64V1489.64ZM109.278 1489.64C109.278 1462.13 117.436 1435.24 132.722 1412.36C148.007 1389.49 169.733 1371.66 195.151 1361.13C220.569 1350.61 248.538 1347.86 275.519 1353.23C302.501 1358.6 327.285 1371.85 346.734 1391.31C366.184 1410.76 379.427 1435.55 384.788 1462.54C390.149 1489.52 387.388 1517.49 376.853 1542.9C366.318 1568.32 348.482 1590.04 325.603 1605.31C302.723 1620.59 275.827 1628.74 248.316 1628.73C211.444 1628.69 176.095 1614.02 150.027 1587.94C123.96 1561.87 109.304 1526.51 109.278 1489.64V1489.64Z" fill="#031B88"/>
<path opacity="0.7" d="M286.426 1489.64C286.426 1482.11 284.191 1474.74 280.003 1468.47C275.816 1462.2 269.864 1457.32 262.901 1454.43C255.938 1451.55 248.275 1450.8 240.883 1452.27C233.491 1453.74 226.701 1457.37 221.371 1462.7C216.042 1468.03 212.413 1474.82 210.942 1482.21C209.472 1489.6 210.227 1497.26 213.111 1504.23C215.995 1511.19 220.879 1517.14 227.146 1521.33C233.413 1525.51 240.781 1527.75 248.318 1527.75C258.425 1527.75 268.118 1523.73 275.264 1516.59C282.411 1509.44 286.426 1499.75 286.426 1489.64V1489.64Z" fill="#031B88"/>
<path opacity="0.7" d="M215.367 1691.45C226.263 1693.21 237.283 1694.09 248.32 1694.08H248.825V1682.66C262.161 1682.61 275.457 1681.19 288.5 1678.41L290.926 1689.68C301.729 1687.38 312.327 1684.2 322.615 1680.18L318.42 1669.47C330.819 1664.6 342.676 1658.45 353.799 1651.12L360.117 1660.77C369.353 1654.74 378.09 1647.98 386.246 1640.56L378.463 1632.02C388.297 1623 397.172 1612.99 404.946 1602.15L414.347 1608.92C420.791 1599.95 426.488 1590.47 431.379 1580.56L421.271 1575.51C427.254 1563.56 431.947 1551.01 435.271 1538.06L446.39 1540.94C449.117 1530.24 450.993 1519.34 452 1508.34L440.577 1507.33C441.083 1501.57 441.386 1495.76 441.386 1489.84C441.366 1482.34 440.91 1474.85 440.022 1467.4L451.444 1466.09C450.176 1455.1 448.012 1444.23 444.975 1433.59L433.906 1436.78C430.234 1423.94 425.238 1411.53 418.997 1399.73L429.105 1394.32C423.929 1384.58 417.98 1375.27 411.314 1366.47L402.015 1373.04C393.946 1362.42 384.8 1352.67 374.723 1343.93L382.354 1335.19C374.018 1327.95 365.111 1321.39 355.72 1315.58L349.604 1325.38C338.254 1318.36 326.213 1312.51 313.669 1307.95L317.561 1297.13C307.165 1293.39 296.483 1290.5 285.619 1288.49L283.547 1299.81C271.881 1297.63 260.037 1296.53 248.168 1296.53H243.569L243.317 1285C232.275 1285.26 221.271 1286.41 210.414 1288.44L212.537 1299.76C199.422 1302.2 186.599 1306.02 174.278 1311.13L169.83 1300.52C159.632 1304.77 149.795 1309.84 140.415 1315.68L146.531 1325.49C135.176 1332.65 124.591 1340.97 114.943 1350.3L106.957 1341.91C98.973 1349.54 91.6206 1357.81 84.9721 1366.63L94.1705 1373.55C86.1479 1384.21 79.2224 1395.66 73.4993 1407.72L63.0879 1402.66C58.391 1412.67 54.5201 1423.05 51.514 1433.69L62.5825 1436.83C58.9449 1449.68 56.6416 1462.87 55.7089 1476.2L44.2867 1475.39C43.9329 1480.04 43.7812 1484.79 43.7812 1489.49C43.7812 1495.81 44.0845 1502.18 44.6404 1508.44L56.0627 1507.38C57.294 1520.67 59.9024 1533.8 63.846 1546.55L52.8786 1549.94C56.1202 1560.51 60.2454 1570.79 65.2106 1580.67L75.3188 1575.61C81.2961 1587.54 88.4945 1598.82 96.7986 1609.27L87.7013 1616.45C94.5799 1625.1 102.134 1633.2 110.293 1640.66L118.026 1632.12C127.912 1641.08 138.682 1649.03 150.17 1655.82L144.307 1665.93C153.831 1671.55 163.805 1676.36 174.126 1680.33L178.27 1669.62C190.724 1674.45 203.648 1677.98 216.833 1680.13L215.367 1691.45ZM248.775 1677.91V1666.18C260.99 1666.15 273.169 1664.85 285.114 1662.29L287.54 1673.86C274.793 1676.54 261.8 1677.86 248.775 1677.81V1677.91ZM90.8348 1489.74C90.8348 1458.6 100.071 1428.15 117.376 1402.25C134.681 1376.35 159.276 1356.17 188.053 1344.25C216.83 1332.33 248.495 1329.21 279.044 1335.28C309.593 1341.36 337.654 1356.36 359.679 1378.38C381.704 1400.41 396.703 1428.47 402.779 1459.02C408.856 1489.57 405.737 1521.23 393.818 1550.01C381.898 1578.79 361.713 1603.38 335.814 1620.69C309.916 1637.99 279.468 1647.23 248.32 1647.23C206.551 1647.17 166.51 1630.55 136.985 1601.01C107.459 1571.46 90.8615 1531.41 90.8348 1489.64V1489.74ZM316.651 1665.07L312.355 1654.05C323.713 1649.6 334.585 1643.99 344.803 1637.32L351.272 1647.43C340.36 1654.44 328.76 1660.32 316.651 1664.97V1665.07ZM375.329 1628.53L367.344 1619.78C376.329 1611.54 384.442 1602.4 391.553 1592.49L401.156 1599.37C393.541 1609.89 384.888 1619.63 375.329 1628.43V1628.53ZM416.874 1573.29L406.311 1568.23C411.764 1557.33 416.05 1545.87 419.098 1534.07L430.571 1537C427.283 1549.51 422.692 1561.64 416.874 1573.19V1573.29ZM436.534 1489.74C436.534 1495.5 436.231 1501.17 435.726 1506.78L423.95 1505.71C424.405 1500.66 424.708 1495.15 424.708 1489.74C424.631 1482.83 424.142 1475.93 423.242 1469.07L435.018 1467.76C435.934 1475.02 436.44 1482.32 436.534 1489.64V1489.74ZM429.206 1437.99L417.885 1441.22C414.497 1429.5 409.925 1418.16 404.239 1407.36L414.65 1401.85C420.757 1413.32 425.636 1425.4 429.206 1437.89V1437.99ZM398.275 1376.18L388.874 1383.15C381.488 1373.43 373.121 1364.48 363.907 1356.47L371.64 1347.57C381.465 1356.14 390.39 1365.69 398.275 1376.08V1376.18ZM347.127 1329.68L340.911 1339.79C330.541 1333.36 319.532 1328.02 308.059 1323.87L312.103 1312.75C324.335 1317.12 336.075 1322.76 347.127 1329.58V1329.68ZM248.32 1301.58C259.849 1301.59 271.354 1302.65 282.688 1304.76L280.515 1316.39C269.901 1314.37 259.123 1313.36 248.32 1313.36C246.905 1313.36 245.54 1313.36 244.125 1313.36L243.873 1301.53L248.32 1301.58ZM213.548 1304.81L215.721 1316.44C203.73 1318.67 192.007 1322.16 180.747 1326.85L176.249 1315.93C188.263 1310.92 200.762 1307.16 213.548 1304.71V1304.81ZM149.159 1330.08L155.426 1340.19C145.052 1346.63 135.379 1354.13 126.567 1362.58L118.43 1354.04C127.826 1344.94 138.122 1336.81 149.159 1329.78V1330.08ZM98.1632 1376.73L107.564 1383.81C100.207 1393.56 93.8734 1404.05 88.6616 1415.09L77.9974 1410.04C83.5138 1398.16 90.2734 1386.89 98.1632 1376.43V1376.73ZM67.3333 1438.6L78.705 1441.83C75.347 1453.55 73.2461 1465.6 72.4379 1477.76L60.6619 1476.96C61.5102 1463.87 63.7466 1450.91 67.3333 1438.29V1438.6ZM60.9652 1507.43L72.7411 1506.32C73.8687 1518.48 76.2397 1530.48 79.8169 1542.15L68.5463 1545.64C64.6836 1533.1 62.1427 1520.2 60.9652 1507.13V1507.43ZM79.9685 1573.84L90.5315 1568.79C95.9812 1579.7 102.553 1590.02 110.141 1599.57L100.892 1606.9C92.7608 1596.55 85.7472 1585.37 79.9685 1573.54V1573.84ZM121.614 1628.98L129.6 1620.24C138.611 1628.46 148.452 1635.73 158.964 1641.92L153 1652.03C141.767 1645.34 131.251 1637.52 121.614 1628.68V1628.98ZM180.646 1665.12L184.891 1654.1C196.318 1658.53 208.175 1661.74 220.27 1663.7L218.4 1675.38C205.491 1673.29 192.837 1669.85 180.646 1665.12V1665.12Z" fill="#031B88"/>
</g>
<path d="M165.482 257.759C165.482 266.615 168.109 275.273 173.029 282.637C177.949 290.001 184.943 295.74 193.125 299.129C201.308 302.519 210.311 303.405 218.998 301.677C227.684 299.95 235.663 295.685 241.925 289.422C248.188 283.16 252.453 275.181 254.18 266.495C255.908 257.808 255.021 248.805 251.632 240.622C248.243 232.44 242.504 225.447 235.14 220.526C227.776 215.606 219.118 212.979 210.262 212.979C198.394 213.006 187.019 217.733 178.627 226.125C170.236 234.516 165.509 245.891 165.482 257.759V257.759ZM227.597 257.759C227.597 261.179 226.585 264.522 224.689 267.368C222.793 270.215 220.097 272.437 216.941 273.754C213.786 275.072 210.31 275.427 206.953 274.774C203.596 274.122 200.507 272.491 198.075 270.086C195.643 267.682 193.976 264.612 193.284 261.263C192.593 257.914 192.907 254.435 194.188 251.264C195.469 248.093 197.66 245.371 200.484 243.443C203.308 241.514 206.64 240.463 210.059 240.423C214.653 240.437 219.055 242.267 222.303 245.515C225.551 248.764 227.382 253.165 227.395 257.759H227.597Z" fill="#031B88"/>
<path d="M130.706 257.757C130.706 278.802 139.066 298.985 153.947 313.866C168.828 328.747 189.011 337.107 210.055 337.107C231.1 337.107 251.283 328.747 266.164 313.866C281.044 298.985 289.404 278.802 289.404 257.757C289.404 236.713 281.044 216.53 266.164 201.649C251.283 186.768 231.1 178.408 210.055 178.408C189.011 178.408 168.828 186.768 153.947 201.649C139.066 216.53 130.706 236.713 130.706 257.757V257.757ZM275.708 257.757C275.708 270.752 271.854 283.455 264.635 294.26C257.415 305.065 247.154 313.486 235.148 318.459C223.143 323.432 209.932 324.733 197.187 322.198C184.441 319.663 172.734 313.405 163.546 304.216C154.357 295.028 148.099 283.321 145.564 270.575C143.029 257.83 144.33 244.62 149.303 232.614C154.276 220.608 162.697 210.347 173.502 203.127C184.307 195.908 197.01 192.054 210.005 192.054C227.43 192.054 244.142 198.977 256.464 211.298C268.786 223.62 275.708 240.332 275.708 257.757V257.757Z" fill="#031B88"/>
<path d="M219.049 126.251C216.067 126.251 213.034 125.948 210.053 125.948H209.749V138.129C207.02 138.129 204.291 138.129 201.612 138.432L200.753 126.302C197.771 126.302 194.739 126.807 191.807 127.212L193.475 139.291C190.746 139.662 188.067 140.117 185.439 140.656L182.963 128.779C180.031 129.385 177.049 130.093 174.219 130.901L177.504 142.627C174.876 143.385 172.45 144.193 169.721 145.103L165.475 133.681C162.645 134.641 159.865 135.753 157.136 136.966L162.19 148.136C159.714 149.248 157.136 150.41 154.862 151.674L149.201 140.858C146.573 142.222 144.147 143.739 141.367 145.305L147.736 155.666C145.411 157.132 143.187 158.648 140.963 160.215L133.887 150.107C131.461 151.825 128.833 153.645 126.711 155.565L134.393 165.117C132.27 166.836 130.248 168.605 128.277 170.475L119.989 161.63C117.765 163.652 115.642 165.825 113.621 167.998L122.566 176.337C120.696 178.309 118.927 180.381 117.209 182.503L107.707 174.771C105.837 177.096 104.018 179.522 102.299 181.948L112.408 189.023C110.841 191.247 109.325 193.471 107.909 195.796L97.498 189.478C95.9144 192.073 94.4487 194.701 93.1009 197.362L103.967 202.973C102.704 205.348 101.541 208.027 100.429 210.351L89.2598 205.297C88.0468 208.027 86.935 210.857 85.9747 213.687L97.4474 217.73C96.5377 220.308 95.7291 222.785 94.971 225.514L83.2455 222.279C82.4368 225.16 81.7292 228.091 81.1227 231.023L93.0504 233.449C92.4944 236.127 92.0901 238.806 91.6858 241.535L79.556 240.12C79.1517 243.051 78.8485 246.084 78.6463 249.066L90.7761 249.824C90.7761 252.452 90.7761 255.131 90.7761 257.759H78.5957C78.5957 260.741 78.5957 263.773 78.9495 266.755L91.0793 265.896C91.0793 268.625 91.5342 271.354 91.9385 274.033L79.556 275.954C79.9603 278.935 80.4657 281.917 81.0722 284.798L92.9999 282.322C93.5558 285 94.2129 287.628 94.971 290.257L83.2455 293.542C84.0541 296.423 84.9639 299.303 85.9747 302.134L97.4474 298.04C98.3572 300.634 99.368 303.161 100.48 305.621L89.2598 310.675C90.4728 313.404 91.7869 316.134 93.1515 318.762L103.967 313.101C105.231 315.527 106.545 317.902 108.011 320.227L97.5991 326.595C99.1659 329.123 100.834 331.65 102.653 334.076L112.761 327.05C114.328 329.224 115.945 331.447 117.815 333.52L108.314 341.252C110.234 343.577 112.205 345.852 114.278 348.025L123.173 339.686C125.026 341.64 126.946 343.56 128.934 345.447L120.646 354.393C122.819 356.415 125.093 358.386 127.418 360.256L135.1 350.805C137.223 352.523 139.396 354.14 141.62 355.859L134.595 365.967C137.021 367.685 139.649 369.353 142.126 371.021L148.443 360.609C150.768 362.025 153.143 363.288 155.569 364.552L149.959 375.418C152.638 376.783 155.367 378.097 158.096 379.259L163.151 368.09C165.627 369.151 168.205 370.162 170.782 371.071L166.688 382.544C169.519 383.555 172.4 384.465 175.28 385.273L178.566 373.548C181.143 374.256 183.62 374.913 186.5 375.469L184.024 387.396C186.955 388.003 189.937 388.508 192.919 388.912L194.536 376.833C197.215 377.187 199.944 377.49 202.674 377.642L201.865 389.772C204.746 389.772 207.728 390.075 210.659 390.075V377.389C213.439 377.389 216.117 377.389 218.847 377.086L219.655 389.216C222.637 389.216 225.67 388.71 228.601 388.306L226.984 376.227C229.646 375.856 232.324 375.401 235.02 374.862L237.496 386.79C240.428 386.183 243.359 385.425 246.24 384.616L242.955 372.891C245.583 372.133 248.009 371.324 250.738 370.414L254.832 381.887C257.611 380.876 260.442 379.764 263.171 378.602L258.117 367.432C260.644 366.321 263.171 365.158 265.496 363.895L271.106 374.71C273.785 373.346 276.413 371.83 278.94 370.313L272.622 359.902C274.947 358.487 277.171 356.971 279.395 355.404L286.47 365.512C288.896 363.794 291.524 361.924 293.647 360.054L285.914 350.602C288.037 348.884 290.059 347.065 292.03 345.195L300.42 354.14C302.593 352.119 304.716 349.945 306.737 347.772L297.842 339.433C299.661 337.462 301.481 335.39 303.199 333.317L312.65 341C314.571 338.675 316.391 336.249 318.109 333.823L308.001 326.798C309.568 324.574 311.134 322.3 312.549 319.975L322.961 326.292C324.477 323.765 325.993 321.238 327.358 318.458L316.492 312.848C317.755 310.422 318.968 307.794 320.029 305.469L331.249 310.523C332.412 307.794 333.524 304.964 334.535 302.134L323.062 298.04C323.972 295.513 324.78 292.986 325.488 290.257L337.264 293.542C338.022 290.661 338.78 287.73 339.336 284.798L327.206 282.018C327.762 279.39 328.166 276.712 328.571 273.982L340.6 275.6C341.004 272.668 341.307 269.636 341.509 266.654L329.379 265.845C329.379 263.167 329.683 260.488 329.683 257.759H341.813C341.813 254.777 341.812 251.744 341.509 248.763L329.379 249.571C329.379 246.842 328.925 244.163 328.52 241.485L340.6 239.817C340.195 236.835 339.69 233.853 339.083 230.922L327.206 233.348C326.65 230.669 325.993 228.293 325.235 225.413L337.011 222.128C336.203 219.247 335.293 216.366 334.282 213.586L322.809 217.629C321.899 215.102 320.889 212.575 319.777 210.099L330.946 205.045C329.784 202.315 328.47 199.586 327.105 196.958L316.239 202.568C315.026 200.142 313.712 197.767 312.297 195.442L322.658 189.124C321.141 186.547 319.474 184.07 317.604 181.594L307.495 188.669C305.929 186.446 304.311 184.272 302.441 182.15L311.892 174.417C310.022 172.143 308.001 169.818 305.979 167.644L297.033 175.984C295.483 174.131 293.748 172.193 291.828 170.172L300.167 161.226C297.994 159.204 295.719 157.233 293.394 155.312L285.561 165.117C283.438 163.399 281.265 161.731 279.041 160.063L286.066 149.955C283.64 148.237 281.012 146.569 278.535 144.901L272.218 155.312C269.893 153.897 267.517 152.583 265.091 151.32L270.702 140.453C268.073 139.089 265.294 137.775 262.564 136.612L257.51 147.782C255.034 146.67 252.456 145.71 249.929 144.749L253.973 133.277C251.193 132.266 248.261 131.356 245.431 130.547L242.146 142.323C239.518 141.565 237.092 140.908 234.211 140.352L236.637 128.425C233.756 127.818 230.774 127.313 227.792 126.909L226.125 139.24C223.446 138.887 220.767 138.583 218.038 138.432L219.049 126.251ZM309.163 257.658C309.461 270.858 307.119 283.985 302.273 296.267C297.428 308.55 290.177 319.74 280.946 329.182C271.716 338.623 260.692 346.125 248.522 351.246C236.352 356.368 223.282 359.006 210.078 359.006C196.874 359.006 183.803 356.368 171.633 351.246C159.463 346.125 148.44 338.623 139.209 329.182C129.979 319.74 122.728 308.55 117.882 296.267C113.037 283.985 110.694 270.858 110.992 257.658C111.577 231.766 122.273 207.132 140.792 189.027C159.31 170.922 184.18 160.785 210.078 160.785C235.976 160.785 260.845 170.922 279.364 189.027C297.882 207.132 308.578 231.766 309.163 257.658V257.658Z" fill="#031B88"/>
<path d="M122.219 1738.1C148.793 1738.1 170.334 1716.56 170.334 1689.98C170.334 1663.41 148.793 1641.87 122.219 1641.87C95.6463 1641.87 74.1045 1663.41 74.1045 1689.98C74.1045 1716.56 95.6463 1738.1 122.219 1738.1Z" fill="#031B88"/>
<path d="M50.6992 1689.93C50.6892 1704.08 54.8751 1717.91 62.7272 1729.68C70.5793 1741.45 81.745 1750.62 94.8118 1756.04C107.879 1761.46 122.26 1762.89 136.136 1760.13C150.011 1757.38 162.759 1750.57 172.766 1740.57C182.772 1730.57 189.589 1717.83 192.352 1703.96C195.116 1690.08 193.702 1675.7 188.291 1662.63C182.88 1649.56 173.713 1638.39 161.952 1630.53C150.19 1622.67 136.361 1618.47 122.215 1618.47C103.26 1618.48 85.0856 1626.02 71.6782 1639.41C58.2708 1652.81 50.726 1670.98 50.6992 1689.93V1689.93ZM187.16 1689.93C187.17 1702.82 183.357 1715.42 176.205 1726.14C169.053 1736.86 158.881 1745.22 146.978 1750.16C135.075 1755.1 121.974 1756.39 109.334 1753.89C96.6932 1751.38 85.0804 1745.18 75.9643 1736.07C66.8483 1726.96 60.6385 1715.35 58.1207 1702.71C55.6029 1690.07 56.8901 1676.97 61.8194 1665.07C66.7488 1653.16 75.0988 1642.98 85.8133 1635.82C96.5278 1628.66 109.125 1624.84 122.012 1624.84C139.309 1624.81 155.908 1631.65 168.162 1643.86C180.416 1656.07 187.322 1672.64 187.362 1689.93H187.16Z" fill="#031B88"/>
<path d="M13.5049 1689.93C13.5049 1711.44 19.8808 1732.45 31.8264 1750.33C43.772 1768.21 60.7507 1782.14 80.6155 1790.37C100.48 1798.6 122.339 1800.75 143.427 1796.56C164.516 1792.36 183.886 1782.01 199.09 1766.81C214.294 1751.6 224.648 1732.23 228.843 1711.14C233.038 1690.05 230.885 1668.2 222.656 1648.33C214.428 1628.47 200.494 1611.49 182.616 1599.54C164.738 1587.6 143.72 1581.22 122.218 1581.22C93.3981 1581.26 65.7696 1592.73 45.3906 1613.11C25.0116 1633.49 13.545 1661.11 13.5049 1689.93V1689.93ZM216.073 1689.93C216.083 1708.5 210.587 1726.65 200.28 1742.09C189.973 1757.53 175.319 1769.57 158.17 1776.68C141.021 1783.79 122.149 1785.66 103.939 1782.04C85.7299 1778.43 69.0019 1769.49 55.8711 1756.37C42.7403 1743.24 33.7965 1726.52 30.171 1708.31C26.5456 1690.11 28.4012 1671.23 35.5034 1654.08C42.6055 1636.93 54.635 1622.27 70.0704 1611.95C85.5057 1601.64 103.654 1596.13 122.218 1596.13C147.084 1596.17 170.92 1606.07 188.503 1623.65C206.086 1641.23 215.982 1665.07 216.022 1689.93H216.073Z" fill="#031B88"/>
<path d="M121.864 1530.13C113.402 1530.13 104.953 1530.79 96.5935 1532.1L94.8246 1520.88C85.9626 1522.29 77.2258 1524.41 68.695 1527.19L72.2834 1538.06C64.3244 1540.66 56.5843 1543.89 49.1356 1547.71L44.0816 1537.61C36.1205 1541.72 28.4838 1546.43 21.2371 1551.71L28.0096 1560.96C21.2487 1565.9 14.8785 1571.36 8.95567 1577.28L0.8691 1569.19C-5.44404 1575.48 -11.2728 1582.24 -16.5675 1589.41L-7.26791 1596.13C-12.1795 1602.91 -16.5561 1610.06 -20.358 1617.51L-30.4662 1612.46C-34.4584 1620.48 -37.8375 1628.79 -40.5744 1637.32L-29.7081 1640.81C-32.2734 1648.78 -34.2166 1656.95 -35.5203 1665.22L-46.7909 1663.45C-48.1209 1672.22 -48.7966 1681.07 -48.8125 1689.94V1690.24H-37.4408C-37.4344 1698.6 -36.7583 1706.95 -35.4192 1715.21L-46.6898 1717.03C-45.2669 1725.87 -43.1546 1734.59 -40.3722 1743.1L-29.5059 1739.57C-26.9269 1747.53 -23.6983 1755.28 -19.8526 1762.71L-29.9608 1767.77C-25.8843 1775.77 -21.1687 1783.42 -15.8599 1790.66L-6.61093 1783.89C-1.69906 1790.66 3.74277 1797.03 9.66324 1802.95L1.57675 1811.03C7.94749 1817.35 14.7902 1823.18 22.0457 1828.47L28.7677 1819.17C35.5314 1824.1 42.6807 1828.48 50.1464 1832.26L45.0924 1842.37C53.1101 1846.37 61.4233 1849.75 69.9585 1852.48L73.4458 1841.61C81.4204 1844.17 89.582 1846.12 97.857 1847.42L96.0881 1858.69C104.884 1860.05 113.772 1860.72 122.673 1860.71V1860.71V1849.39C131.051 1849.36 139.416 1848.69 147.69 1847.37L149.459 1858.64C158.321 1857.22 167.058 1855.11 175.589 1852.32L172.051 1841.46C180.023 1838.89 187.766 1835.66 195.199 1831.8L200.253 1841.91C208.239 1837.83 215.895 1833.14 223.148 1827.86L216.022 1819.17C222.783 1814.22 229.153 1808.77 235.076 1802.84L243.162 1810.93C249.489 1804.65 255.318 1797.89 260.599 1790.71L251.4 1783.79C256.319 1777.02 260.696 1769.87 264.49 1762.41L274.598 1767.47C278.642 1759.47 282.023 1751.15 284.707 1742.6L273.84 1739.11C276.446 1731.15 278.407 1722.98 279.703 1714.7L290.974 1716.47C292.349 1707.64 293.042 1698.72 293.046 1689.78H281.674C281.67 1681.32 281.011 1672.87 279.703 1664.51L290.923 1662.74C289.547 1653.88 287.451 1645.14 284.656 1636.62L273.79 1640.15C271.219 1632.19 268.007 1624.45 264.187 1617.01L274.295 1611.95C270.2 1603.96 265.485 1596.31 260.194 1589.06L251.4 1596.03C246.474 1589.25 241.033 1582.87 235.126 1576.93L243.213 1568.84C236.935 1562.51 230.176 1556.68 222.996 1551.4L216.022 1560.7C209.251 1555.77 202.103 1551.37 194.643 1547.56L199.697 1537.45C191.692 1533.46 183.397 1530.08 174.881 1527.35L171.343 1538.21C163.386 1535.64 155.241 1533.68 146.983 1532.35L148.701 1521.13C139.858 1519.73 130.918 1519.04 121.965 1519.06H121.611L121.864 1530.13ZM262.924 1689.94C262.933 1717.78 254.686 1745 239.223 1768.15C223.76 1791.31 201.778 1809.36 176.056 1820.02C150.334 1830.68 122.028 1833.47 94.7194 1828.04C67.4107 1822.61 42.3256 1809.2 22.6375 1789.52C2.9493 1769.83 -10.4575 1744.74 -15.887 1717.43C-21.3165 1690.13 -18.5247 1661.82 -7.86496 1636.1C2.79481 1610.38 20.8437 1588.39 43.9987 1572.93C67.1537 1557.47 94.3745 1549.22 122.218 1549.23C159.523 1549.27 195.289 1564.11 221.667 1590.49C248.046 1616.86 262.883 1652.63 262.924 1689.94V1689.94Z" fill="#031B88"/>
<path d="M115.238 1148.49C115.238 1153.57 116.744 1158.53 119.565 1162.76C122.386 1166.98 126.396 1170.27 131.088 1172.21C135.779 1174.15 140.942 1174.66 145.922 1173.67C150.902 1172.68 155.477 1170.24 159.068 1166.65C162.659 1163.06 165.104 1158.48 166.094 1153.5C167.085 1148.52 166.577 1143.36 164.633 1138.67C162.69 1133.97 159.399 1129.96 155.177 1127.14C150.955 1124.32 145.991 1122.82 140.913 1122.82C137.541 1122.82 134.203 1123.48 131.088 1124.77C127.973 1126.06 125.142 1127.95 122.758 1130.34C120.374 1132.72 118.483 1135.55 117.193 1138.67C115.902 1141.78 115.238 1145.12 115.238 1148.49V1148.49Z" fill="#031B88"/>
<path d="M102.761 1148.49C102.761 1156.04 104.999 1163.41 109.192 1169.69C113.385 1175.97 119.344 1180.86 126.317 1183.74C133.289 1186.63 140.961 1187.39 148.363 1185.92C155.765 1184.44 162.565 1180.81 167.901 1175.47C173.238 1170.14 176.872 1163.34 178.344 1155.93C179.817 1148.53 179.061 1140.86 176.173 1133.89C173.285 1126.92 168.394 1120.96 162.119 1116.76C155.844 1112.57 148.466 1110.33 140.919 1110.33C135.908 1110.33 130.946 1111.32 126.317 1113.24C121.687 1115.15 117.48 1117.96 113.937 1121.51C110.394 1125.05 107.583 1129.26 105.665 1133.89C103.748 1138.52 102.761 1143.48 102.761 1148.49V1148.49ZM175.641 1148.49C175.631 1155.36 173.586 1162.06 169.764 1167.77C165.943 1173.47 160.517 1177.91 154.172 1180.53C147.826 1183.15 140.846 1183.83 134.114 1182.49C127.382 1181.14 121.2 1177.83 116.349 1172.97C111.499 1168.12 108.197 1161.93 106.861 1155.2C105.525 1148.46 106.216 1141.48 108.845 1135.14C111.475 1128.8 115.925 1123.38 121.634 1119.57C127.343 1115.75 134.054 1113.72 140.919 1113.72C150.124 1113.75 158.942 1117.42 165.441 1123.94C171.941 1130.46 175.59 1139.29 175.59 1148.49H175.641Z" fill="#031B88"/>
<path d="M82.9492 1148.49C82.9592 1159.95 86.3677 1171.16 92.7436 1180.68C99.1195 1190.21 108.177 1197.63 118.77 1202.01C129.364 1206.39 141.018 1207.53 152.26 1205.29C163.502 1203.05 173.826 1197.52 181.929 1189.41C190.031 1181.3 195.547 1170.97 197.78 1159.73C200.012 1148.49 198.861 1136.83 194.472 1126.24C190.083 1115.65 182.653 1106.6 173.121 1100.24C163.589 1093.87 152.383 1090.47 140.92 1090.47C125.54 1090.48 110.795 1096.6 99.9253 1107.48C89.0552 1118.36 82.9492 1133.11 82.9492 1148.49V1148.49ZM190.955 1148.49C190.945 1158.38 188.002 1168.05 182.498 1176.27C176.994 1184.5 169.176 1190.9 160.032 1194.68C150.889 1198.46 140.83 1199.44 131.127 1197.51C121.425 1195.57 112.514 1190.8 105.521 1183.8C98.5288 1176.8 93.7685 1167.89 91.8419 1158.18C89.9154 1148.48 90.9092 1138.42 94.6977 1129.28C98.4863 1120.14 104.899 1112.33 113.127 1106.83C121.354 1101.34 131.026 1098.4 140.92 1098.4C154.159 1098.47 166.834 1103.78 176.172 1113.16C185.511 1122.55 190.753 1135.25 190.753 1148.49H190.955Z" fill="#031B88"/>
<path d="M140.718 1063.23C136.266 1063.23 131.82 1063.58 127.425 1064.29L126.465 1058.28C121.731 1059.02 117.065 1060.15 112.516 1061.66L114.386 1067.42C110.154 1068.8 106.031 1070.49 102.054 1072.48L99.2742 1067.07C95.0178 1069.25 90.9445 1071.77 87.0939 1074.6L90.6822 1079.66C87.1076 1082.31 83.7293 1085.21 80.5741 1088.35L76.2781 1084.05C72.8879 1087.48 69.7622 1091.17 66.928 1095.07L71.9821 1098.66C69.3504 1102.27 67.0177 1106.09 65.0075 1110.08L59.549 1107.3C57.3768 1111.56 55.5515 1115.99 54.0907 1120.54L59.9029 1122.41C58.5208 1126.65 57.4731 1131 56.7693 1135.4L50.8055 1134.49C50.0548 1139.17 49.6829 1143.9 49.6936 1148.64V1148.64H55.7585C55.7522 1153.11 56.1072 1157.57 56.8199 1161.99L50.8055 1162.95C51.5811 1167.68 52.713 1172.34 54.1917 1176.9L59.9534 1174.98C61.3162 1179.21 63.006 1183.33 65.0075 1187.31L59.5996 1190.09C61.7902 1194.34 64.2903 1198.43 67.0796 1202.32L72.1337 1198.68C74.7582 1202.27 77.6651 1205.65 80.8268 1208.79L76.5308 1213.13C79.9206 1216.51 83.5708 1219.62 87.4476 1222.43L91.036 1217.38C94.6298 1220.01 98.4331 1222.34 102.408 1224.35L99.628 1229.81C103.909 1231.98 108.354 1233.8 112.92 1235.27L114.79 1229.51C119.033 1230.87 123.376 1231.91 127.779 1232.59L126.819 1238.61C131.519 1239.33 136.266 1239.7 141.021 1239.72V1239.72V1233.65C145.489 1233.63 149.949 1233.28 154.364 1232.59L155.273 1238.56C160.007 1237.83 164.672 1236.71 169.223 1235.22L167.353 1229.41C171.593 1228.06 175.717 1226.37 179.685 1224.35L182.464 1229.76C186.709 1227.58 190.781 1225.08 194.645 1222.28L191.056 1217.23C194.663 1214.62 198.044 1211.71 201.165 1208.53L205.511 1212.83C208.877 1209.44 211.985 1205.81 214.811 1201.96L209.756 1198.38C212.388 1194.76 214.721 1190.94 216.731 1186.95L222.19 1189.73C224.362 1185.47 226.187 1181.04 227.648 1176.49L221.886 1174.62C223.268 1170.38 224.316 1166.04 225.02 1161.63L230.984 1162.54C231.735 1157.85 232.106 1153.1 232.096 1148.34H226.132C226.138 1143.87 225.783 1139.41 225.07 1135L231.085 1134.04C230.326 1129.31 229.211 1124.65 227.749 1120.09L221.937 1122.01C220.588 1117.75 218.897 1113.61 216.883 1109.63L222.341 1106.85C220.15 1102.61 217.65 1098.54 214.861 1094.67L209.807 1098.25C207.185 1094.66 204.278 1091.28 201.114 1088.15L205.461 1083.85C202.06 1080.47 198.411 1077.34 194.544 1074.5L190.955 1079.55C187.344 1076.92 183.524 1074.59 179.533 1072.58L182.313 1067.12C178.053 1064.95 173.625 1063.12 169.071 1061.66L167.201 1067.42C162.96 1066.04 158.617 1064.99 154.212 1064.29L155.122 1058.33C150.409 1057.57 145.642 1057.2 140.869 1057.22L140.718 1063.23ZM216.024 1148.49C216.014 1163.33 211.603 1177.84 203.35 1190.18C195.097 1202.51 183.372 1212.12 169.657 1217.8C155.942 1223.47 140.853 1224.95 126.297 1222.05C111.742 1219.14 98.3733 1211.99 87.8819 1201.49C77.3906 1191 70.2475 1177.62 67.3557 1163.07C64.4638 1148.51 65.9531 1133.42 71.6352 1119.71C77.3172 1106 86.937 1094.28 99.2783 1086.03C111.62 1077.79 126.128 1073.39 140.97 1073.39C160.88 1073.4 179.97 1081.32 194.044 1095.4C208.118 1109.49 216.024 1128.58 216.024 1148.49V1148.49Z" fill="#031B88"/>
<path d="M-31.6269 890.782C-31.6369 901.37 -28.5064 911.723 -22.6313 920.531C-16.7562 929.34 -8.40064 936.208 1.37849 940.266C11.1576 944.325 21.9209 945.392 32.3066 943.333C42.6923 941.273 52.2339 936.18 59.7243 928.697C67.2146 921.213 72.3172 911.676 74.3865 901.293C76.4558 890.909 75.3988 880.145 71.3492 870.362C67.2997 860.579 60.4397 852.217 51.6368 846.333C42.8339 840.45 32.4838 837.31 21.8958 837.31C7.71356 837.323 -5.88477 842.959 -15.9179 852.983C-25.951 863.007 -31.6002 876.6 -31.6269 890.782V890.782ZM71.0216 890.782C71.0216 900.508 68.1374 910.016 62.7339 918.103C57.3303 926.19 49.6501 932.493 40.6643 936.215C31.6785 939.937 21.7908 940.911 12.2515 939.013C2.71227 937.116 -6.05017 932.432 -12.9276 925.555C-19.805 918.677 -24.4886 909.915 -26.3861 900.376C-28.2835 890.836 -27.3097 880.949 -23.5876 871.963C-19.8656 862.977 -13.5626 855.297 -5.47556 849.893C2.61143 844.49 12.1192 841.606 21.8453 841.606C34.8923 841.606 47.4057 846.785 56.636 856.006C65.8664 865.227 71.0587 877.735 71.0721 890.782H71.0216Z" fill="#031B88"/>
<path d="M-12.0224 890.782C-12.0224 897.501 -10.0292 904.07 -6.29501 909.656C-2.56082 915.243 2.74652 919.596 8.95547 922.165C15.1644 924.734 21.9959 925.404 28.5856 924.089C35.1752 922.774 41.2269 919.535 45.9747 914.78C50.7226 910.025 53.9532 903.968 55.258 897.377C56.5628 890.785 55.883 883.955 53.3047 877.75C50.7263 871.544 46.3652 866.244 40.7733 862.518C35.1814 858.792 28.6099 856.808 21.8905 856.818C17.4327 856.818 13.0187 857.697 8.90087 859.405C4.78307 861.112 1.04233 863.615 -2.10743 866.769C-5.2572 869.924 -7.7542 873.668 -9.45551 877.788C-11.1568 881.909 -12.0291 886.324 -12.0224 890.782V890.782Z" fill="#031B88"/>
<path d="M-60.9443 890.782C-60.9543 907.18 -56.1003 923.212 -46.9964 936.85C-37.8925 950.489 -24.9478 961.12 -9.80016 967.4C5.34753 973.68 22.0176 975.326 38.1008 972.129C54.184 968.933 68.9577 961.037 80.5527 949.442C92.1477 937.847 100.043 923.074 103.24 906.99C106.436 890.907 104.79 874.237 98.5107 859.089C92.2309 843.942 81.5992 830.997 67.9607 821.893C54.3223 812.789 38.29 807.935 21.8922 807.945C-0.0692336 807.972 -21.1235 816.708 -36.6525 832.237C-52.1816 847.766 -60.9176 868.82 -60.9443 890.782ZM89.5664 890.782C89.5764 904.169 85.6159 917.258 78.1858 928.393C70.7557 939.529 60.19 948.211 47.825 953.341C35.4601 958.47 21.8514 959.818 8.72057 957.212C-4.41027 954.607 -16.4734 948.165 -25.9428 938.703C-35.4123 929.241 -41.8627 917.182 -44.478 904.053C-47.0933 890.925 -45.7561 877.315 -40.6355 864.946C-35.5149 852.577 -26.8409 842.005 -15.7109 834.567C-4.58082 827.128 8.50531 823.158 21.8922 823.158C39.8451 823.145 57.0689 830.26 69.7778 842.941C82.4867 855.621 89.6407 872.829 89.6675 890.782H89.5664Z" fill="#031B88"/>
<path d="M-103.4 890.784C-103.4 915.576 -96.048 939.812 -82.273 960.425C-68.4981 981.038 -48.9196 997.104 -26.0135 1006.59C-3.10739 1016.07 22.0972 1018.55 46.4124 1013.71C70.7277 1008.87 93.0612 996.93 110.589 979.396C128.116 961.861 140.049 939.523 144.88 915.206C149.711 890.888 147.221 865.685 137.727 842.783C128.232 819.88 112.159 800.308 91.5401 786.542C70.9211 772.775 46.6827 765.432 21.8904 765.442C-11.3352 765.483 -43.1878 778.703 -66.6771 802.201C-90.1665 825.7 -103.374 857.558 -103.4 890.784V890.784ZM138.539 890.784C138.539 913.855 131.697 936.407 118.88 955.59C106.062 974.773 87.8445 989.724 66.5298 998.553C45.2151 1007.38 21.761 1009.69 -0.866588 1005.19C-23.4941 1000.69 -44.2789 989.58 -60.5924 973.267C-76.906 956.953 -88.0157 936.168 -92.5166 913.541C-97.0175 890.913 -94.7074 867.459 -85.8786 846.144C-77.0498 824.83 -62.0986 806.612 -42.9159 793.794C-23.7332 780.977 -1.18048 774.135 21.8904 774.135C52.8192 774.162 82.4736 786.46 104.344 808.33C126.214 830.2 138.512 859.855 138.539 890.784V890.784Z" fill="#031B88"/>
<path d="M21.5881 733.955C10.6315 734.005 -0.291363 735.174 -11.0107 737.442L-16.0648 713.334C-28.472 715.988 -40.5668 719.935 -52.151 725.11L-42.0428 747.702C-52.0212 752.181 -61.5066 757.686 -70.3457 764.128L-84.952 743.911C-95.1623 751.347 -104.579 759.815 -113.053 769.182L-94.6558 785.709C-101.961 793.863 -108.398 802.755 -113.861 812.243L-135.341 799.911C-141.589 810.908 -146.671 822.528 -150.504 834.582L-127.002 842.163C-130.394 852.589 -132.664 863.348 -133.774 874.256L-158.287 871.729C-159.601 884.33 -159.601 897.034 -158.287 909.635L-133.774 907.007C-132.61 917.898 -130.306 928.638 -126.901 939.05L-150.402 946.732C-146.451 958.781 -141.251 970.384 -134.886 981.352L-113.457 968.919C-107.971 978.389 -101.518 987.264 -94.201 995.403L-112.547 1011.98C-104.041 1021.35 -94.5903 1029.82 -84.3455 1037.25L-69.7897 1017.03C-60.9505 1023.49 -51.4452 1028.98 -41.4363 1033.41L-51.5445 1056.05C-39.9487 1061.17 -27.8561 1065.08 -15.4583 1067.73L-10.4042 1043.57C0.250263 1045.8 11.1061 1046.94 21.9925 1046.95V1046.95V1071.57C34.6638 1071.58 47.3014 1070.26 59.696 1067.63L54.6419 1043.47C65.3394 1041.18 75.7723 1037.79 85.775 1033.36L95.8832 1055.9C107.472 1050.74 118.483 1044.37 128.735 1036.9L114.128 1016.68C122.993 1010.24 131.158 1002.89 138.489 994.746L156.886 1011.32C165.336 1001.86 172.803 991.565 179.175 980.594L157.745 968.262C163.192 958.765 167.662 948.74 171.088 938.342L194.589 945.923C198.484 933.864 201.109 921.431 202.423 908.826L177.911 906.299C178.461 900.875 178.731 895.426 178.72 889.974C178.715 884.471 178.428 878.972 177.86 873.498L202.373 870.92C201.059 858.316 198.433 845.883 194.539 833.823L171.038 842.365C167.635 831.949 163.145 821.921 157.644 812.445L179.073 800.062C172.701 789.111 165.215 778.848 156.734 769.434L138.388 785.961C131.055 777.836 122.89 770.501 114.027 764.077L128.583 743.861C118.325 736.398 107.315 730.029 95.7316 724.857L85.6234 747.449C75.6232 742.966 65.168 739.577 54.4397 737.341L59.4938 713.182C47.1325 710.554 34.529 709.233 21.8914 709.24H21.386L21.5881 733.955ZM172.2 890.631C172.2 920.36 163.384 949.42 146.868 974.138C130.352 998.856 106.877 1018.12 79.412 1029.5C51.9467 1040.87 21.7246 1043.85 -7.43237 1038.05C-36.5894 1032.25 -63.3718 1017.94 -84.3928 996.916C-105.414 975.895 -119.729 949.112 -125.529 919.955C-131.329 890.798 -128.352 860.576 -116.976 833.111C-105.599 805.645 -86.3337 782.171 -61.6156 765.654C-36.8975 749.138 -7.83686 740.323 21.8914 740.323C61.7696 740.363 100.001 756.233 128.185 784.445C156.369 812.658 172.2 850.905 172.2 890.783V890.631Z" fill="#031B88"/>
<path d="M-38.252 362.226C-38.252 368.014 -36.5357 373.671 -33.3203 378.484C-30.1048 383.296 -25.5345 387.047 -20.1873 389.262C-14.8402 391.477 -8.95634 392.056 -3.27985 390.927C2.39665 389.798 7.61081 387.011 11.7033 382.918C15.7959 378.826 18.583 373.612 19.7121 367.935C20.8412 362.259 20.2617 356.375 18.0469 351.028C15.832 345.68 12.0812 341.11 7.26891 337.895C2.4566 334.679 -3.20112 332.963 -8.98883 332.963C-16.7499 332.963 -24.1931 336.046 -29.681 341.534C-35.1689 347.022 -38.252 354.465 -38.252 362.226ZM17.8989 362.226C17.8989 367.544 16.322 372.742 13.3675 377.164C10.413 381.586 6.21374 385.032 1.30065 387.067C-3.61244 389.102 -9.01862 389.635 -14.2343 388.597C-19.45 387.56 -24.241 384.999 -28.0013 381.239C-31.7617 377.478 -34.3224 372.687 -35.3599 367.472C-36.3974 362.256 -35.8649 356.85 -33.8299 351.937C-31.7948 347.023 -28.3485 342.824 -23.9268 339.87C-19.5052 336.915 -14.3067 335.338 -8.98883 335.338C-1.86186 335.352 4.96942 338.189 10.009 343.228C15.0485 348.268 17.8856 355.099 17.8989 362.226V362.226Z" fill="#031B88"/>
<path d="M-27.5898 362.228C-27.5898 365.906 -26.499 369.502 -24.4553 372.561C-22.4116 375.62 -19.5069 378.004 -16.1083 379.411C-12.7098 380.819 -8.97017 381.187 -5.36231 380.47C-1.75445 379.752 1.55956 377.981 4.16069 375.379C6.76181 372.778 8.53322 369.464 9.25086 365.856C9.96851 362.249 9.6002 358.509 8.19248 355.11C6.78476 351.712 4.40088 348.807 1.34229 346.763C-1.71631 344.72 -5.3123 343.629 -8.99084 343.629C-13.9236 343.629 -18.6543 345.588 -22.1423 349.076C-25.6303 352.564 -27.5898 357.295 -27.5898 362.228Z" fill="#031B88"/>
<path d="M-54.3203 362.226C-54.3203 371.222 -51.6525 380.017 -46.6544 387.497C-41.6562 394.977 -34.5522 400.808 -26.2406 404.25C-17.929 407.693 -8.78308 408.594 0.0404915 406.839C8.86406 405.084 16.9691 400.751 23.3305 394.39C29.6919 388.029 34.0241 379.924 35.7792 371.1C37.5344 362.276 36.6336 353.131 33.1908 344.819C29.748 336.507 23.9178 329.403 16.4376 324.405C8.95732 319.407 0.162892 316.739 -8.83354 316.739C-20.8974 316.739 -32.4671 321.532 -40.9975 330.062C-49.5279 338.592 -54.3203 350.162 -54.3203 362.226ZM28.0108 362.226C28.0108 369.543 25.841 376.696 21.7759 382.78C17.7107 388.864 11.9327 393.606 5.17262 396.406C-1.5875 399.206 -9.02617 399.939 -16.2027 398.511C-23.3792 397.084 -29.9712 393.56 -35.1452 388.386C-40.3191 383.212 -43.8426 376.62 -45.2701 369.444C-46.6976 362.267 -45.965 354.828 -43.1649 348.068C-40.3647 341.308 -35.6229 335.53 -29.539 331.465C-23.455 327.4 -16.3023 325.23 -8.98516 325.23C0.826767 325.23 10.2368 329.128 17.1749 336.066C24.113 343.004 28.0108 352.414 28.0108 362.226V362.226Z" fill="#031B88"/>
<path d="M-77.5674 362.227C-77.5674 375.791 -73.545 389.051 -66.0089 400.33C-58.4728 411.608 -47.7615 420.399 -35.2294 425.59C-22.6973 430.781 -8.90735 432.139 4.39664 429.493C17.7006 426.846 29.9211 420.314 39.5127 410.723C49.1044 401.131 55.6364 388.911 58.2827 375.607C60.929 362.303 59.5708 348.513 54.3799 335.981C49.1889 323.449 40.3983 312.737 29.1198 305.201C17.8412 297.665 4.58115 293.643 -8.98347 293.643C-27.1649 293.669 -44.5939 300.904 -57.4501 313.76C-70.3063 326.616 -77.5406 344.045 -77.5674 362.227V362.227ZM54.7991 362.227C54.7991 374.854 51.0541 387.197 44.0378 397.696C37.0215 408.194 27.0491 416.376 15.3822 421.205C3.71527 426.035 -9.122 427.296 -21.5058 424.829C-33.8896 422.362 -45.2635 416.278 -54.1887 407.345C-63.1139 398.413 -69.1894 387.034 -71.6467 374.649C-74.104 362.263 -72.8327 349.427 -67.9936 337.764C-63.1544 326.101 -54.965 316.135 -44.461 309.127C-33.9571 302.119 -21.6106 298.383 -8.98347 298.393C7.93325 298.42 24.1487 305.156 36.1059 317.122C48.0631 329.089 54.7858 345.31 54.7991 362.227Z" fill="#031B88"/>
<path d="M-9.18775 276.308C-15.1838 276.353 -21.1604 276.997 -27.0287 278.229L-29.8589 265.038C-36.6263 266.423 -43.2319 268.507 -49.5699 271.254L-44.061 283.586C-49.5057 286.057 -54.6871 289.071 -59.5265 292.582L-67.5119 281.767C-73.0398 285.854 -78.1219 290.513 -82.6742 295.665L-72.566 304.712C-76.5719 309.163 -80.0956 314.025 -83.0785 319.217L-94.804 312.495C-98.2912 318.491 -101.121 324.845 -103.244 331.448L-90.3564 335.593C-92.226 341.288 -93.4799 347.168 -94.0964 353.13L-107.49 351.766C-108.197 358.655 -108.197 365.598 -107.49 372.487L-94.0459 371.072C-93.405 377.031 -92.1517 382.908 -90.3058 388.61L-103.143 392.805C-100.993 399.406 -98.1466 405.759 -94.6524 411.758L-82.9774 404.935C-79.9596 410.117 -76.4202 414.977 -72.4144 419.44L-82.5226 428.537C-77.9426 433.647 -72.8633 438.286 -67.3603 442.385L-59.4254 431.418C-54.5614 434.933 -49.3443 437.931 -43.8588 440.364L-49.3677 452.746C-43.0275 455.57 -36.4024 457.705 -29.6063 459.114L-26.8265 445.923C-20.9946 447.163 -15.049 447.79 -9.08665 447.793V447.793V461.237C-2.15818 461.245 4.7523 460.533 11.534 459.114L8.80478 445.873C14.6622 444.625 20.3713 442.761 25.837 440.313L31.346 452.645C37.6563 449.807 43.6526 446.318 49.2375 442.234L41.252 431.317C46.0957 427.77 50.5662 423.74 54.5948 419.288L64.703 428.335C69.3483 423.191 73.4315 417.566 76.8833 411.555L65.1578 404.783C68.1698 399.615 70.6264 394.143 72.4863 388.458L85.3236 392.603C87.4577 386.032 88.8976 379.257 89.6196 372.386L76.1758 371.022C76.4981 368.05 76.6667 365.065 76.6811 362.076C76.6668 359.071 76.4981 356.068 76.1758 353.08L89.6196 351.665C88.8808 344.792 87.424 338.017 85.2731 331.448L72.4357 335.643C70.5759 329.942 68.1195 324.453 65.1073 319.268L76.8328 312.495C73.3385 306.5 69.2401 300.877 64.6019 295.716L54.4937 304.763C50.4641 300.327 45.9934 296.314 41.1509 292.784L49.2375 281.615C43.6554 277.568 37.678 274.097 31.3966 271.254L25.8876 283.586C20.3969 281.158 14.6731 279.295 8.80478 278.027L11.5845 264.835C4.82086 263.405 -2.07241 262.677 -8.98562 262.662H-9.28886L-9.18775 276.308ZM73.2444 362.228C73.1944 378.48 68.3293 394.354 59.2634 407.843C50.1976 421.332 37.3376 431.833 22.3077 438.018C7.27785 444.203 -9.24784 445.795 -25.1822 442.594C-41.1166 439.393 -55.7449 431.541 -67.2197 420.031C-78.6945 408.521 -86.5011 393.869 -89.6536 377.924C-92.806 361.98 -91.1629 345.46 -84.9317 330.449C-78.7006 315.438 -68.1609 302.61 -54.6438 293.586C-41.1266 284.561 -25.2384 279.745 -8.98562 279.745C1.83051 279.758 12.5381 281.903 22.5251 286.055C32.5122 290.208 41.5832 296.289 49.2196 303.948C56.856 311.608 62.9082 320.698 67.0305 330.698C71.1528 340.697 73.2643 351.411 73.2444 362.228V362.228Z" fill="#031B88"/>
<path d="M100.639 1371.48C100.639 1378.55 102.737 1385.47 106.669 1391.36C110.601 1397.24 116.19 1401.83 122.728 1404.54C129.267 1407.24 136.461 1407.95 143.403 1406.57C150.344 1405.19 156.72 1401.78 161.724 1396.78C166.728 1391.77 170.136 1385.4 171.517 1378.46C172.898 1371.52 172.189 1364.32 169.481 1357.78C166.772 1351.24 162.186 1345.66 156.302 1341.72C150.417 1337.79 143.499 1335.69 136.422 1335.69C126.931 1335.69 117.83 1339.46 111.119 1346.17C104.409 1352.88 100.639 1361.99 100.639 1371.48Z" fill="#031B88"/>
<path d="M149.1 1252.1C144.905 1251.69 140.66 1251.44 136.364 1251.44V1269.08C128.691 1269.08 121.042 1269.96 113.57 1271.71L109.628 1254.52C105.49 1255.46 101.407 1256.63 97.3971 1258.01L103.159 1274.69C95.906 1277.26 88.9707 1280.65 82.4875 1284.8L73.1375 1269.64C69.5361 1271.89 66.0605 1274.33 62.726 1276.96L73.5924 1290.86C67.562 1295.6 62.0707 1300.99 57.2171 1306.94L43.5205 1295.77C40.841 1299.01 38.3276 1302.38 35.99 1305.87L50.7984 1315.53C46.6849 1321.97 43.295 1328.86 40.6902 1336.05L23.9612 1330.03C22.4955 1334.03 21.232 1338.12 20.1707 1342.21L37.304 1346.51C35.4161 1353.95 34.3984 1361.58 34.2715 1369.25L16.6328 1368.85C16.6328 1373.09 16.6328 1377.34 16.9866 1381.58L34.5748 1380.12C35.2167 1387.76 36.7084 1395.3 39.0224 1402.61L22.2429 1407.97C23.5085 1412.01 25.0105 1415.98 26.741 1419.84L42.914 1412.72C45.9861 1419.74 49.8524 1426.39 54.4374 1432.53L40.2859 1443.09C42.8297 1446.5 45.5456 1449.77 48.423 1452.9L61.412 1440.87C66.5906 1446.57 72.4072 1451.66 78.7475 1456.03L68.6393 1470.59C72.1462 1472.98 75.7731 1475.19 79.5057 1477.21L87.8954 1461.69C94.636 1465.36 101.775 1468.24 109.173 1470.28L104.473 1487.27C108.563 1488.41 112.714 1489.32 116.906 1489.99L119.736 1472.61C125.282 1473.52 130.895 1473.98 136.516 1473.97C138.588 1473.97 140.66 1473.97 142.682 1473.97L143.743 1491.56C147.977 1491.31 152.195 1490.84 156.378 1490.15L153.447 1472.76C161.029 1471.52 168.442 1469.4 175.533 1466.44L182.255 1482.77C186.174 1481.15 190.004 1479.33 193.728 1477.31L185.338 1461.79C192.056 1458.12 198.345 1453.71 204.089 1448.65L215.764 1461.89C218.956 1459.1 221.993 1456.13 224.861 1453L211.872 1441.07C217.043 1435.39 221.585 1429.18 225.417 1422.52L240.579 1431.32C242.69 1427.63 244.613 1423.83 246.341 1419.94L230.168 1412.87C233.226 1405.83 235.498 1398.47 236.94 1390.93L254.276 1394.22C255.075 1390.06 255.649 1385.86 255.994 1381.63L238.406 1380.17C238.406 1377.39 238.76 1374.61 238.76 1371.78C238.757 1366.91 238.419 1362.05 237.749 1357.22L255.186 1354.75C254.589 1350.54 253.762 1346.38 252.709 1342.26L235.626 1346.61C233.734 1339.17 231.004 1331.96 227.489 1325.13L243.207 1317.09C241.282 1313.31 239.156 1309.63 236.839 1306.08L222.031 1315.78C217.828 1309.36 212.93 1303.43 207.425 1298.09L219.655 1285.4C216.61 1282.45 213.404 1279.67 210.053 1277.07L199.186 1291.01C193.152 1286.29 186.609 1282.26 179.678 1278.99L187.158 1263.02C183.299 1261.22 179.352 1259.61 175.331 1258.21L169.62 1274.94C162.358 1272.4 154.829 1270.71 147.18 1269.89L149.1 1252.1ZM224.052 1371.48C224.052 1388.81 218.913 1405.75 209.283 1420.16C199.653 1434.58 185.966 1445.81 169.952 1452.44C153.938 1459.08 136.317 1460.81 119.317 1457.43C102.317 1454.05 86.7017 1445.7 74.4453 1433.45C62.1889 1421.19 53.8422 1405.57 50.4607 1388.57C47.0792 1371.57 48.8147 1353.95 55.4478 1337.94C62.0809 1321.92 73.3137 1308.24 87.7256 1298.61C102.138 1288.98 119.082 1283.84 136.415 1283.84C159.649 1283.86 181.925 1293.11 198.354 1309.54C214.784 1325.97 224.026 1348.24 224.052 1371.48V1371.48Z" fill="#031B88"/>
<path d="M155.526 605.579C179.336 605.579 198.638 586.278 198.638 562.468C198.638 538.658 179.336 519.356 155.526 519.356C131.717 519.356 112.415 538.658 112.415 562.468C112.415 586.278 131.717 605.579 155.526 605.579Z" fill="#031B88"/>
<path d="M170.786 418.782C165.732 418.277 160.678 417.974 155.624 417.974V439.201C146.404 439.21 137.215 440.261 128.231 442.334L123.48 421.663C118.484 422.776 113.556 424.177 108.722 425.858L115.646 446.074C106.932 449.074 98.5892 453.058 90.7799 457.951L79.5093 439.959C75.1779 442.647 70.9938 445.566 66.9751 448.702L79.5598 465.381C72.2852 471.056 65.6732 477.532 59.8489 484.688L43.3726 471.294C40.1764 475.21 37.1903 479.293 34.4269 483.525L52.2678 495.15C47.1788 502.86 43.0062 511.137 39.8347 519.813L19.9216 512.485C18.1544 517.289 16.6362 522.181 15.373 527.142L35.943 532.196C33.7258 541.148 32.5054 550.318 32.3041 559.539L11.077 559.084C10.9722 564.143 11.141 569.205 11.5824 574.246L32.7084 572.477C33.4845 581.744 35.2811 590.897 38.0657 599.769L17.8494 606.188C19.4133 611.066 21.2353 615.857 23.3078 620.541L42.7156 611.949C46.4507 620.391 51.1122 628.392 56.6143 635.805L39.582 648.491C42.5873 652.634 45.8096 656.615 49.2353 660.418L64.903 646.014C71.1476 652.807 78.1512 658.861 85.7763 664.057L73.6971 681.595C77.9222 684.477 82.2912 687.142 86.7871 689.58L96.8953 670.931C105.037 675.236 113.631 678.627 122.52 681.039L116.859 701.255C121.913 702.569 126.967 703.681 132.021 704.54L135.458 683.566C142.137 684.705 148.899 685.28 155.674 685.284C158.151 685.284 160.728 685.284 163.104 685.032L164.367 706.208C169.421 705.905 174.476 705.298 179.53 704.49L176.042 683.515C185.147 682.006 194.049 679.462 202.576 675.934L210.663 695.595C215.393 693.634 220.015 691.424 224.511 688.974L214.403 670.324C222.509 665.924 230.088 660.617 236.995 654.505L251.045 670.476C254.817 667.307 258.427 663.95 261.861 660.418L246.345 645.812C252.613 639.024 258.089 631.547 262.669 623.523L281.117 634.086C283.669 629.656 285.964 625.083 287.99 620.39L268.532 611.899C272.249 603.446 274.979 594.594 276.669 585.517L297.543 589.459C298.503 584.405 299.16 579.351 299.615 574.297L278.438 572.578C278.691 569.242 278.893 565.856 278.893 562.47C278.884 556.602 278.461 550.741 277.629 544.932L298.604 541.95C297.915 536.845 296.937 531.783 295.673 526.788L275.102 531.842C272.835 522.886 269.545 514.22 265.297 506.016L284.25 496.312C281.943 491.923 279.412 487.656 276.669 483.525L258.879 495.2C253.831 487.425 247.932 480.238 241.291 473.771L256.049 458.608C252.383 455.025 248.519 451.65 244.475 448.5L231.182 465.229C223.891 459.554 215.992 454.706 207.63 450.775L216.627 431.519C211.998 429.347 207.258 427.424 202.425 425.757L195.501 445.973C186.778 442.956 177.74 440.938 168.562 439.959L170.786 418.782ZM261.001 562.47C261.001 583.325 254.819 603.712 243.236 621.055C231.652 638.398 215.188 651.917 195.923 659.905C176.658 667.893 155.457 669.991 135.001 665.933C114.544 661.875 95.749 651.844 80.9915 637.108C66.2341 622.372 56.1763 603.592 52.0893 583.141C48.0022 562.69 50.0694 541.486 58.0296 522.21C65.9898 502.934 79.4857 486.45 96.8116 474.841C114.138 463.233 134.516 457.021 155.371 456.991C183.36 456.991 210.204 468.099 230.009 487.876C249.815 507.653 260.961 534.481 261.001 562.47V562.47Z" fill="#031B88"/>
<path d="M-120.231 1105.58C-126.457 1105.59 -132.674 1106.06 -138.83 1107L-142.065 1085.21C-144.895 1085.62 -147.725 1086.17 -150.454 1086.68L-146.057 1108.26C-152.136 1109.51 -158.116 1111.2 -163.949 1113.31L-171.479 1092.64C-174.158 1093.6 -176.786 1094.72 -179.414 1095.83L-170.671 1116.04C-176.367 1118.55 -181.889 1121.44 -187.197 1124.69L-198.771 1105.99C-201.197 1107.45 -203.825 1109.02 -205.898 1110.64L-193.262 1128.78C-198.353 1132.32 -203.168 1136.24 -207.667 1140.51L-222.829 1124.43C-224.85 1126.35 -226.923 1128.43 -228.894 1130.45L-212.822 1145.61C-217.148 1150.08 -221.103 1154.9 -224.648 1160.01L-242.691 1147.28C-244.309 1149.6 -245.926 1152.03 -247.442 1154.4L-228.692 1166.08C-231.99 1171.34 -234.879 1176.85 -237.334 1182.56L-257.55 1173.71C-258.662 1176.39 -259.724 1179.07 -260.734 1181.7L-240.013 1189.33C-242.138 1195.16 -243.827 1201.14 -245.067 1207.22L-266.597 1202.72C-267.204 1205.45 -267.709 1208.33 -268.113 1211.16L-246.33 1214.4C-247.253 1220.54 -247.743 1226.74 -247.796 1232.94H-269.781V1233.65C-269.781 1236.23 -269.781 1238.71 -269.781 1241.49L-247.796 1240.32C-247.482 1246.54 -246.705 1252.72 -245.471 1258.82L-267.103 1263.12C-266.547 1265.95 -265.89 1268.68 -265.182 1271.46L-243.854 1265.95C-242.285 1271.94 -240.292 1277.82 -237.89 1283.54L-258.106 1292.13C-256.994 1294.76 -255.781 1297.18 -254.568 1299.91L-234.756 1290.16C-232.02 1295.74 -228.878 1301.11 -225.356 1306.23L-243.5 1318.71C-241.883 1321.04 -240.215 1323.36 -238.446 1325.59L-221.009 1312.04C-217.214 1316.99 -213.04 1321.64 -208.526 1325.94L-223.688 1341.86C-221.666 1343.78 -219.544 1345.7 -217.37 1347.57L-202.966 1330.79C-198.214 1334.88 -193.144 1338.58 -187.804 1341.86L-199.631 1360.51C-197.205 1362.03 -194.576 1363.54 -192.252 1364.91L-181.537 1345.6C-176.123 1348.65 -170.479 1351.27 -164.656 1353.43L-172.44 1374.05C-169.761 1375.07 -167.032 1375.98 -164.302 1376.83L-157.732 1355.81C-151.803 1357.69 -145.737 1359.11 -139.588 1360.05L-143.075 1381.79C-140.245 1382.24 -137.364 1382.6 -134.584 1382.9L-132.361 1360.96C-128.113 1361.41 -123.845 1361.63 -119.574 1361.62C-117.603 1361.62 -115.682 1361.62 -113.762 1361.62L-112.801 1383.66C-109.921 1383.66 -107.09 1383.3 -104.26 1383.05L-106.484 1361.12C-100.279 1360.5 -94.1291 1359.42 -88.0869 1357.88L-82.7295 1379.21C-79.9498 1378.55 -77.2206 1377.74 -74.542 1376.89L-81.1122 1355.91C-75.1941 1354.01 -69.4179 1351.7 -63.8272 1348.99L-54.2245 1368.85C-51.6975 1367.59 -49.1704 1366.27 -46.6434 1364.91L-57.4086 1345.6C-51.9408 1342.68 -46.7329 1339.3 -41.842 1335.49L-28.3981 1353.03C-26.1238 1351.31 -23.9 1349.49 -21.7773 1347.62L-36.6868 1330.64C-31.9438 1326.62 -27.5325 1322.23 -23.4957 1317.5L-6.81715 1332C-4.94714 1329.83 -3.12771 1327.61 -1.40932 1325.38L-18.8964 1311.89C-15.0354 1306.99 -11.5548 1301.8 -8.48501 1296.37L10.6699 1307.19C12.0851 1304.71 13.3992 1302.14 14.6627 1299.61L-5.14929 1289.95C-2.36282 1284.37 -0.0140548 1278.57 1.87588 1272.62L22.8503 1279.34C23.7095 1276.66 24.5182 1273.88 25.2257 1271.1L3.948 1265.64C5.49238 1259.64 6.57375 1253.52 7.18261 1247.35L29.1174 1249.67C29.4207 1246.84 29.6228 1243.96 29.7744 1241.13L7.78916 1240.02C7.78916 1237.95 7.78916 1235.78 7.78916 1233.65C7.81653 1229.57 7.61399 1225.48 7.18261 1221.42L29.1174 1219.35C29.1174 1216.52 28.5109 1213.64 28.056 1210.86L6.32343 1214.19C5.36811 1208.04 3.96611 1201.95 2.12853 1196L23.2041 1189.58C22.3955 1186.85 21.4352 1184.12 20.4749 1181.49L-0.19631 1189.13C-2.37044 1183.31 -4.9545 1177.65 -7.92906 1172.19L11.3775 1161.58C10.0129 1159.1 8.54727 1156.53 7.08159 1154.25L-11.4164 1165.83C-14.6511 1160.48 -18.3192 1155.41 -22.3837 1150.66L-5.55363 1136.36C-7.3731 1134.19 -9.29368 1132.07 -11.2648 1130.04L-27.2862 1145.21C-31.5371 1140.69 -36.1334 1136.52 -41.0333 1132.72L-27.3873 1115.34C-29.6111 1113.57 -31.936 1111.9 -34.2609 1110.28L-46.8961 1128.43C-51.9614 1124.82 -57.3207 1121.64 -62.9175 1118.92L-52.8094 1099.16C-55.387 1097.85 -57.8634 1096.64 -60.5926 1095.52L-69.3362 1115.74C-75.0354 1113.26 -80.9151 1111.21 -86.9244 1109.63L-81.3144 1088.35C-84.0436 1087.59 -86.8234 1086.98 -89.6031 1086.38L-94.0001 1107.96C-100.101 1106.72 -106.283 1105.93 -112.498 1105.58L-111.235 1083.6C-114.065 1083.6 -116.946 1083.34 -119.675 1083.34H-120.13L-120.231 1105.58ZM-10.4561 1233.65C-10.4561 1255.31 -16.8795 1276.49 -28.9139 1294.5C-40.9483 1312.51 -58.0534 1326.55 -78.0659 1334.84C-98.0785 1343.13 -120.1 1345.3 -141.345 1341.07C-162.59 1336.84 -182.105 1326.41 -197.422 1311.1C-212.739 1295.78 -223.17 1276.26 -227.396 1255.02C-231.622 1233.77 -229.453 1211.75 -221.163 1191.74C-212.874 1171.73 -198.836 1154.62 -180.825 1142.59C-162.815 1130.55 -141.64 1124.13 -119.978 1124.13C-90.9393 1124.16 -63.0975 1135.7 -42.5639 1156.24C-22.0304 1176.77 -10.4829 1204.61 -10.4561 1233.65V1233.65Z" fill="#031B88"/>
</g>
<defs>
<clipPath id="clip0_41_31">
<rect width="1440" height="1861" fill="white"/>
</clipPath>
</defs>
</svg>
