<svg width="48" height="48" viewBox="0 0 48 48" fill="none" xmlns="http://www.w3.org/2000/svg">
<g clip-path="url(#clip0_108_96)">
<path d="M16.1437 21.2625C14.775 20.9906 13.5 22.0969 13.5 23.4938V28.2188C13.5 29.175 14.1656 29.9438 15.0656 30.2813C16.7719 30.9188 18 32.5688 18 34.5C18 36.9844 15.9844 39 13.5 39C11.0156 39 9 36.9844 9 34.5V11.25C9 10.0031 7.99687 9.00002 6.75 9.00002H2.25C1.00312 9.00002 0 10.0031 0 11.25V34.5C0 42.8906 7.69687 49.5188 16.4062 47.6906C21.5063 46.6219 25.6219 42.4969 26.6906 37.4063C28.3219 29.6344 23.2219 22.6688 16.1437 21.2625ZM19.5938 1.38567e-05C18.7313 -0.0468611 18 0.637514 18 1.50001V4.46251C18 5.25939 18.6187 5.91564 19.4062 5.95314C31.5375 6.60939 41.2875 16.4531 41.9906 28.5938C42.0375 29.3813 42.6937 30 43.4812 30H46.4906C47.3531 30 48.0375 29.2688 47.9906 28.4063C47.1937 13.1063 34.8937 0.806264 19.5938 1.38567e-05ZM19.6219 9.00002C18.75 8.93439 18 9.62814 18 10.5094V13.5188C18 14.3063 18.6094 14.9531 19.3875 15.0094C26.5875 15.6 32.325 21.4031 32.9719 28.6219C33.0469 29.4 33.6844 30 34.4625 30H37.4812C38.3531 30 39.0562 29.25 38.9906 28.3781C38.2031 18.0563 29.9438 9.79689 19.6219 9.00002Z" fill="#DB607E"/>
</g>
<defs>
<clipPath id="clip0_108_96">
<rect width="48" height="48" fill="white"/>
</clipPath>
</defs>
</svg>
