<svg width="48" height="48" viewBox="0 0 48 48" fill="none" xmlns="http://www.w3.org/2000/svg">
<path d="M21.1 5.066C21.9115 4.38204 22.9387 4.00693 24 4.00693C25.0613 4.00693 26.0885 4.38204 26.9 5.066L40.4 16.454C41.416 17.31 42 18.568 42 19.894V25.532C40.8574 24.5096 39.3668 23.9635 37.8342 24.0057C36.3015 24.0478 34.8432 24.6751 33.7585 25.7587C32.6739 26.8424 32.0452 28.3001 32.0016 29.8327C31.958 31.3653 32.5027 32.8564 33.524 34H32.496C31.084 34 29.824 34.65 29 35.666V29.5C29 29.1022 28.842 28.7206 28.5607 28.4393C28.2794 28.158 27.8978 28 27.5 28H20.5C20.1022 28 19.7206 28.158 19.4393 28.4393C19.158 28.7206 19 29.1022 19 29.5V39.5C19 40.4282 18.6313 41.3185 17.9749 41.9749C17.3185 42.6312 16.4283 43 15.5 43H9.5C9.04037 43 8.58525 42.9095 8.16061 42.7336C7.73597 42.5577 7.35013 42.2999 7.02513 41.9749C6.70012 41.6499 6.44231 41.264 6.26642 40.8394C6.09053 40.4147 6 39.9596 6 39.5V19.894C6 18.568 6.584 17.31 7.6 16.454L21.1 5.066V5.066ZM34 30C34 28.9391 34.4214 27.9217 35.1716 27.1716C35.9217 26.4214 36.9391 26 38 26C39.0609 26 40.0783 26.4214 40.8284 27.1716C41.5786 27.9217 42 28.9391 42 30C42 31.0609 41.5786 32.0783 40.8284 32.8284C40.0783 33.5786 39.0609 34 38 34C36.9391 34 35.9217 33.5786 35.1716 32.8284C34.4214 32.0783 34 31.0609 34 30ZM32.5 36C31.12 36 30 37.12 30 38.5V38.506L30.002 39.102L30.018 39.314C30.1282 40.3062 30.485 41.2551 31.056 42.074C32.148 43.634 34.228 45 38 45C41.772 45 43.852 43.634 44.944 42.074C45.515 41.2551 45.8718 40.3062 45.982 39.314L45.998 39.102C46.004 38.962 46.002 38.818 46.002 38.676L46 38.5C46 37.12 44.88 36 43.5 36H32.5Z" fill="#C00030"/>
</svg>
