<svg width="48" height="48" viewBox="0 0 48 48" fill="none" xmlns="http://www.w3.org/2000/svg">
<path d="M13 30C15.7614 30 18 32.2386 18 35V41C18 43.7614 15.7614 46 13 46H7C4.23858 46 2 43.7614 2 41V35C2 32.2386 4.23858 30 7 30H13ZM41 30C43.7614 30 46 32.2386 46 35V41C46 43.7614 43.7614 46 41 46H35C32.2386 46 30 43.7614 30 41V35C30 32.2386 32.2386 30 35 30H41ZM13 2C15.7614 2 18 4.23858 18 7V13C18 15.7614 15.7614 18 13 18H7C4.23858 18 2 15.7614 2 13V7C2 4.23858 4.23858 2 7 2H13ZM41 2C43.7614 2 46 4.23858 46 7V13C46 15.7614 43.7614 18 41 18H35C32.2386 18 30 15.7614 30 13V7C30 4.23858 32.2386 2 35 2H41Z" fill="#C00030" stroke="#C00030" stroke-width="2"/>
</svg>
