<svg width="48" height="48" viewBox="0 0 48 48" fill="none" xmlns="http://www.w3.org/2000/svg">
<path fill-rule="evenodd" clip-rule="evenodd" d="M10 7V37C10 37.7957 10.3161 38.5587 10.8787 39.1213C11.4413 39.6839 12.2044 40 13 40H26V36.465C25.2374 36.0247 24.6414 35.3451 24.3045 34.5316C23.9675 33.7181 23.9084 32.8162 24.1363 31.9656C24.3642 31.1151 24.8664 30.3635 25.565 29.8275C26.2635 29.2914 27.1195 29.0009 28 29.0009C28.8805 29.0009 29.7365 29.2914 30.435 29.8275C31.1336 30.3635 31.6358 31.1151 31.8637 31.9656C32.0916 32.8162 32.0325 33.7181 31.6955 34.5316C31.3586 35.3451 30.7626 36.0247 30 36.465V40H35C35.7956 40 36.5587 39.6839 37.1213 39.1213C37.6839 38.5587 38 37.7957 38 37V7C38 6.20435 37.6839 5.44129 37.1213 4.87868C36.5587 4.31607 35.7956 4 35 4H13C12.2044 4 11.4413 4.31607 10.8787 4.87868C10.3161 5.44129 10 6.20435 10 7ZM28 35C28.5304 35 29.0391 34.7893 29.4142 34.4142C29.7893 34.0391 30 33.5304 30 33C30 32.4696 29.7893 31.9609 29.4142 31.5858C29.0391 31.2107 28.5304 31 28 31C27.4696 31 26.9609 31.2107 26.5858 31.5858C26.2107 31.9609 26 32.4696 26 33C26 33.5304 26.2107 34.0391 26.5858 34.4142C26.9609 34.7893 27.4696 35 28 35ZM18 11C18 10.7348 18.1054 10.4804 18.2929 10.2929C18.4804 10.1054 18.7348 10 19 10H29C29.2652 10 29.5196 10.1054 29.7071 10.2929C29.8946 10.4804 30 10.7348 30 11C30 11.2652 29.8946 11.5196 29.7071 11.7071C29.5196 11.8946 29.2652 12 29 12H19C18.7348 12 18.4804 11.8946 18.2929 11.7071C18.1054 11.5196 18 11.2652 18 11ZM15 16C14.7348 16 14.4804 16.1054 14.2929 16.2929C14.1054 16.4804 14 16.7348 14 17C14 17.2652 14.1054 17.5196 14.2929 17.7071C14.4804 17.8946 14.7348 18 15 18H33C33.2652 18 33.5196 17.8946 33.7071 17.7071C33.8946 17.5196 34 17.2652 34 17C34 16.7348 33.8946 16.4804 33.7071 16.2929C33.5196 16.1054 33.2652 16 33 16H15ZM14 21C14 20.7348 14.1054 20.4804 14.2929 20.2929C14.4804 20.1054 14.7348 20 15 20H33C33.2652 20 33.5196 20.1054 33.7071 20.2929C33.8946 20.4804 34 20.7348 34 21C34 21.2652 33.8946 21.5196 33.7071 21.7071C33.5196 21.8946 33.2652 22 33 22H15C14.7348 22 14.4804 21.8946 14.2929 21.7071C14.1054 21.5196 14 21.2652 14 21ZM15 24C14.7348 24 14.4804 24.1054 14.2929 24.2929C14.1054 24.4804 14 24.7348 14 25C14 25.2652 14.1054 25.5196 14.2929 25.7071C14.4804 25.8946 14.7348 26 15 26H33C33.2652 26 33.5196 25.8946 33.7071 25.7071C33.8946 25.5196 34 25.2652 34 25C34 24.7348 33.8946 24.4804 33.7071 24.2929C33.5196 24.1054 33.2652 24 33 24H15Z" fill="#670019"/>
<path d="M26 44V40H30V44L28 42.5L26 44Z" fill="#670019"/>
</svg>
